<svg width="18" height="18" viewBox="0 0 18 18" fill="none" xmlns="http://www.w3.org/2000/svg">
<path d="M8.16669 6.63334V0.666672C4.00002 1.08334 0.666687 4.65834 0.666687 9.00001C0.666687 13.3417 4.00002 16.9167 8.16669 17.3333V11.3667C7.33335 11.025 6.50002 10.1 6.50002 9.00001C6.50002 7.90001 7.33335 6.97501 8.16669 6.63334ZM11.3834 8.16667H17.3334C16.9334 4.20834 14 1.05834 9.83335 0.666672V6.63334C10.6667 6.88334 11.1 7.45001 11.3834 8.16667ZM9.83335 11.3667V17.3333C14 16.9417 16.9334 13.7917 17.3334 9.83334H11.3834C11.1 10.55 10.6667 11.1167 9.83335 11.3667Z" fill="#141A18" fill-opacity="0.6"/>
</svg>
