<svg xmlns="http://www.w3.org/2000/svg" xmlns:svgjs="http://svgjs.com/svgjs" xmlns:xlink="http://www.w3.org/1999/xlink" width="288" height="288"><svg xmlns="http://www.w3.org/2000/svg" xmlns:svgjs="http://svgjs.com/svgjs" xmlns:xlink="http://www.w3.org/1999/xlink" width="288" height="288" viewBox="0 0 288 288"><svg xmlns="http://www.w3.org/2000/svg" width="288" height="288" version="1.0" viewBox="0 0 48 48"><g fill="#16b14b" class="color000 svgShape color00ff1f" transform="matrix(.1 0 0 -.1 0 48)"><path d="M206 404c-31-30-9-84 34-84 24 0 50 26 50 50 0 24-26 50-50 50-10 0-26-7-34-16zM170 293c0-5 7-17 15-27 8-11 15-30 15-43 0-20 5-23 40-23 35 0 40 3 40 23 0 13 7 32 15 43 8 10 15 22 15 27 0 4-31 7-70 7-38 0-70-3-70-7zM96 264c-20-20-20-48 0-68 30-31 84-9 84 34 0 24-26 50-50 50-10 0-26-7-34-16zM316 264c-31-30-9-84 34-84 24 0 50 26 50 50 0 24-26 50-50 50-10 0-26-7-34-16zM47 154c-16-16-6-54 19-73 56-44 159-11 152 48-3 25-5 26-83 29-45 1-84 0-88-4zM267 154c-16-16-6-54 19-73 56-44 159-11 152 48-3 25-5 26-83 29-45 1-84 0-88-4z" class="color000 svgShape"/></g></svg></svg></svg>