<svg width="16" height="16" viewBox="0 0 16 16" fill="none" xmlns="http://www.w3.org/2000/svg">
<path d="M14.6667 8.83333H1.33333C0.875 8.83333 0.5 9.20833 0.5 9.66667V14.6667C0.5 15.125 0.875 15.5 1.33333 15.5H14.6667C15.125 15.5 15.5 15.125 15.5 14.6667V9.66667C15.5 9.20833 15.125 8.83333 14.6667 8.83333ZM3.83333 13.8333C2.91667 13.8333 2.16667 13.0833 2.16667 12.1667C2.16667 11.25 2.91667 10.5 3.83333 10.5C4.75 10.5 5.5 11.25 5.5 12.1667C5.5 13.0833 4.75 13.8333 3.83333 13.8333ZM14.6667 0.5H1.33333C0.875 0.5 0.5 0.875 0.5 1.33333V6.33333C0.5 6.79167 0.875 7.16667 1.33333 7.16667H14.6667C15.125 7.16667 15.5 6.79167 15.5 6.33333V1.33333C15.5 0.875 15.125 0.5 14.6667 0.5ZM3.83333 5.5C2.91667 5.5 2.16667 4.75 2.16667 3.83333C2.16667 2.91667 2.91667 2.16667 3.83333 2.16667C4.75 2.16667 5.5 2.91667 5.5 3.83333C5.5 4.75 4.75 5.5 3.83333 5.5Z" fill="#141A18" fill-opacity="0.6"/>
</svg>
