<svg width="858" height="979" viewBox="0 0 858 979" fill="none" xmlns="http://www.w3.org/2000/svg">
<rect x="12" y="23" width="844" height="147" rx="73.5" fill="#2A2A30" fill-opacity="0.7"/>
<rect x="4" width="844" height="147" rx="73.5" fill="#D5BE86"/>
<path d="M224.622 87H217.374V58.776H208.062V52.728H233.934V58.776H224.622V87ZM245.551 60.264C249.071 60.264 251.759 61.032 253.615 62.568C255.503 64.072 256.447 66.392 256.447 69.528V87H251.455L250.063 83.448H249.871C249.135 84.376 248.367 85.144 247.567 85.752C246.799 86.36 245.903 86.792 244.879 87.048C243.887 87.336 242.655 87.48 241.183 87.48C239.647 87.48 238.255 87.192 237.007 86.616C235.791 86.008 234.831 85.096 234.127 83.88C233.423 82.632 233.071 81.064 233.071 79.176C233.071 76.392 234.047 74.344 235.999 73.032C237.951 71.688 240.879 70.952 244.783 70.824L249.343 70.68V69.528C249.343 68.152 248.975 67.144 248.239 66.504C247.535 65.864 246.543 65.544 245.263 65.544C243.983 65.544 242.735 65.736 241.519 66.12C240.303 66.472 239.087 66.92 237.871 67.464L235.519 62.616C236.927 61.88 238.479 61.304 240.175 60.888C241.903 60.472 243.695 60.264 245.551 60.264ZM246.559 74.952C244.255 75.016 242.655 75.432 241.759 76.2C240.863 76.968 240.415 77.976 240.415 79.224C240.415 80.312 240.735 81.096 241.375 81.576C242.015 82.024 242.847 82.248 243.871 82.248C245.407 82.248 246.703 81.8 247.759 80.904C248.815 79.976 249.343 78.68 249.343 77.016V74.856L246.559 74.952ZM274.423 87.48C271.831 87.48 269.623 87.016 267.799 86.088C265.975 85.128 264.583 83.656 263.623 81.672C262.663 79.688 262.183 77.144 262.183 74.04C262.183 70.84 262.727 68.232 263.815 66.216C264.903 64.2 266.407 62.712 268.327 61.752C270.279 60.792 272.519 60.312 275.047 60.312C276.839 60.312 278.391 60.488 279.703 60.84C281.047 61.192 282.215 61.608 283.207 62.088L281.095 67.608C279.975 67.16 278.919 66.792 277.927 66.504C276.967 66.216 276.007 66.072 275.047 66.072C273.799 66.072 272.759 66.376 271.927 66.984C271.095 67.56 270.471 68.44 270.055 69.624C269.671 70.776 269.479 72.232 269.479 73.992C269.479 75.72 269.687 77.16 270.103 78.312C270.551 79.432 271.191 80.28 272.023 80.856C272.855 81.4 273.863 81.672 275.047 81.672C276.551 81.672 277.879 81.48 279.031 81.096C280.183 80.68 281.303 80.12 282.391 79.416V85.512C281.303 86.216 280.151 86.712 278.935 87C277.751 87.32 276.247 87.48 274.423 87.48ZM305.608 60.792H313.48L303.112 73.368L314.392 87H306.28L295.576 73.704V87H288.424V60.792H295.576V73.512L305.608 60.792ZM316.414 76.4062H325.883V78.2344H316.414V76.4062ZM365.088 60.792V87H358.416V74.136C358.416 72.856 358.432 71.608 358.464 70.392C358.528 69.176 358.608 68.056 358.704 67.032H358.56L351.312 87H345.936L338.592 66.984H338.4C338.528 68.04 338.608 69.176 338.64 70.392C338.704 71.576 338.736 72.888 338.736 74.328V87H332.064V60.792H342.192L348.72 78.552L355.344 60.792H365.088ZM383.364 60.312C385.796 60.312 387.876 60.776 389.604 61.704C391.364 62.632 392.724 63.976 393.684 65.736C394.644 67.496 395.124 69.656 395.124 72.216V75.672H378.228C378.292 77.688 378.884 79.272 380.004 80.424C381.156 81.576 382.74 82.152 384.756 82.152C386.452 82.152 387.988 81.992 389.364 81.672C390.74 81.32 392.164 80.792 393.636 80.088V85.608C392.356 86.248 390.996 86.712 389.556 87C388.148 87.32 386.436 87.48 384.42 87.48C381.796 87.48 379.476 87 377.46 86.04C375.444 85.048 373.86 83.56 372.708 81.576C371.556 79.592 370.98 77.096 370.98 74.088C370.98 71.016 371.492 68.472 372.516 66.456C373.572 64.408 375.028 62.872 376.884 61.848C378.74 60.824 380.9 60.312 383.364 60.312ZM383.412 65.4C382.036 65.4 380.884 65.848 379.956 66.744C379.06 67.64 378.532 69.032 378.372 70.92H388.404C388.404 69.864 388.212 68.92 387.828 68.088C387.476 67.256 386.932 66.6 386.196 66.12C385.46 65.64 384.532 65.4 383.412 65.4ZM408.076 60.792V70.872H418.06V60.792H425.212V87H418.06V76.2H408.076V87H400.924V60.792H408.076ZM443.505 60.312C445.937 60.312 448.017 60.776 449.745 61.704C451.505 62.632 452.865 63.976 453.825 65.736C454.785 67.496 455.265 69.656 455.265 72.216V75.672H438.369C438.433 77.688 439.025 79.272 440.145 80.424C441.297 81.576 442.881 82.152 444.897 82.152C446.593 82.152 448.129 81.992 449.505 81.672C450.881 81.32 452.305 80.792 453.777 80.088V85.608C452.497 86.248 451.137 86.712 449.697 87C448.289 87.32 446.577 87.48 444.561 87.48C441.937 87.48 439.617 87 437.601 86.04C435.585 85.048 434.001 83.56 432.849 81.576C431.697 79.592 431.121 77.096 431.121 74.088C431.121 71.016 431.633 68.472 432.657 66.456C433.713 64.408 435.169 62.872 437.025 61.848C438.881 60.824 441.041 60.312 443.505 60.312ZM443.553 65.4C442.177 65.4 441.025 65.848 440.097 66.744C439.201 67.64 438.673 69.032 438.513 70.92H448.545C448.545 69.864 448.353 68.92 447.969 68.088C447.617 67.256 447.073 66.6 446.337 66.12C445.601 65.64 444.673 65.4 443.553 65.4ZM484.632 60.792V81.768H488.472V96.408H482.04V87H464.424V96.408H457.992V81.768H460.2C461.352 80.008 462.328 78.008 463.128 75.768C463.928 73.496 464.568 71.08 465.048 68.52C465.528 65.96 465.88 63.384 466.104 60.792H484.632ZM472.104 66.168C471.848 68.088 471.528 69.96 471.144 71.784C470.76 73.576 470.28 75.304 469.704 76.968C469.16 78.632 468.488 80.232 467.688 81.768H477.48V66.168H472.104ZM530.187 60.792L520.539 73.368L531.099 87H523.467L513.483 73.704V87H506.811V73.704L496.827 87H489.195L499.755 73.368L490.107 60.792H497.499L506.811 73.512V60.792H513.483V73.512L522.795 60.792H530.187ZM544.708 60.312C547.14 60.312 549.22 60.776 550.948 61.704C552.708 62.632 554.068 63.976 555.028 65.736C555.988 67.496 556.468 69.656 556.468 72.216V75.672H539.572C539.636 77.688 540.228 79.272 541.348 80.424C542.5 81.576 544.084 82.152 546.1 82.152C547.796 82.152 549.332 81.992 550.708 81.672C552.084 81.32 553.508 80.792 554.98 80.088V85.608C553.7 86.248 552.34 86.712 550.9 87C549.492 87.32 547.78 87.48 545.764 87.48C543.14 87.48 540.82 87 538.804 86.04C536.788 85.048 535.204 83.56 534.052 81.576C532.9 79.592 532.324 77.096 532.324 74.088C532.324 71.016 532.836 68.472 533.86 66.456C534.916 64.408 536.372 62.872 538.228 61.848C540.084 60.824 542.244 60.312 544.708 60.312ZM544.756 65.4C543.38 65.4 542.228 65.848 541.3 66.744C540.404 67.64 539.876 69.032 539.716 70.92H549.748C549.748 69.864 549.556 68.92 549.172 68.088C548.82 67.256 548.276 66.6 547.54 66.12C546.804 65.64 545.876 65.4 544.756 65.4ZM576.859 60.312C579.803 60.312 582.187 61.464 584.011 63.768C585.835 66.04 586.747 69.4 586.747 73.848C586.747 76.824 586.315 79.336 585.451 81.384C584.587 83.4 583.403 84.92 581.899 85.944C580.395 86.968 578.651 87.48 576.667 87.48C575.419 87.48 574.331 87.32 573.403 87C572.507 86.68 571.739 86.264 571.099 85.752C570.459 85.24 569.899 84.696 569.419 84.12H569.035C569.163 84.728 569.259 85.368 569.323 86.04C569.387 86.68 569.419 87.32 569.419 87.96V98.52H562.267V60.792H568.075L569.083 64.2H569.419C569.899 63.496 570.475 62.856 571.147 62.28C571.819 61.672 572.619 61.192 573.547 60.84C574.507 60.488 575.611 60.312 576.859 60.312ZM574.555 66.024C573.307 66.024 572.315 66.28 571.579 66.792C570.843 67.304 570.299 68.088 569.947 69.144C569.627 70.168 569.451 71.464 569.419 73.032V73.8C569.419 75.496 569.579 76.936 569.899 78.12C570.219 79.272 570.763 80.152 571.531 80.76C572.299 81.368 573.339 81.672 574.651 81.672C575.739 81.672 576.635 81.368 577.339 80.76C578.043 80.152 578.571 79.256 578.923 78.072C579.275 76.888 579.451 75.448 579.451 73.752C579.451 71.192 579.051 69.272 578.251 67.992C577.483 66.68 576.251 66.024 574.555 66.024Z" fill="black"/>
<rect x="8" y="231" width="844" height="147" rx="73.5" fill="#2A2A30" fill-opacity="0.7"/>
<rect y="210" width="844" height="147" rx="73.5" fill="#B3856B"/>
<path d="M185.554 272L183.058 263.84H170.578L168.082 272H160.258L172.354 237.584H181.234L193.378 272H185.554ZM178.834 249.776C178.674 249.232 178.466 248.544 178.21 247.712C177.954 246.88 177.698 246.032 177.442 245.168C177.186 244.304 176.978 243.552 176.818 242.912C176.658 243.552 176.434 244.352 176.146 245.312C175.89 246.24 175.634 247.136 175.378 248C175.154 248.832 174.978 249.424 174.85 249.776L172.402 257.744H181.33L178.834 249.776ZM204.294 245.792V255.872H214.278V245.792H221.43V272H214.278V261.2H204.294V272H197.142V245.792H204.294ZM239.676 245.264C243.196 245.264 245.884 246.032 247.74 247.568C249.628 249.072 250.572 251.392 250.572 254.528V272H245.58L244.188 268.448H243.996C243.26 269.376 242.492 270.144 241.692 270.752C240.924 271.36 240.028 271.792 239.004 272.048C238.012 272.336 236.78 272.48 235.308 272.48C233.772 272.48 232.38 272.192 231.132 271.616C229.916 271.008 228.956 270.096 228.252 268.88C227.548 267.632 227.196 266.064 227.196 264.176C227.196 261.392 228.172 259.344 230.124 258.032C232.076 256.688 235.004 255.952 238.908 255.824L243.468 255.68V254.528C243.468 253.152 243.1 252.144 242.364 251.504C241.66 250.864 240.668 250.544 239.388 250.544C238.108 250.544 236.86 250.736 235.644 251.12C234.428 251.472 233.212 251.92 231.996 252.464L229.644 247.616C231.052 246.88 232.604 246.304 234.3 245.888C236.028 245.472 237.82 245.264 239.676 245.264ZM240.684 259.952C238.38 260.016 236.78 260.432 235.884 261.2C234.988 261.968 234.54 262.976 234.54 264.224C234.54 265.312 234.86 266.096 235.5 266.576C236.14 267.024 236.972 267.248 237.996 267.248C239.532 267.248 240.828 266.8 241.884 265.904C242.94 264.976 243.468 263.68 243.468 262.016V259.856L240.684 259.952ZM281.364 272H274.212V251.168H267.636C267.316 255.008 266.916 258.288 266.436 261.008C265.988 263.696 265.412 265.888 264.708 267.584C264.036 269.28 263.172 270.528 262.116 271.328C261.06 272.096 259.764 272.48 258.228 272.48C257.396 272.48 256.644 272.416 255.972 272.288C255.3 272.16 254.692 271.968 254.148 271.712V266C254.5 266.128 254.868 266.24 255.252 266.336C255.636 266.432 256.036 266.48 256.452 266.48C256.9 266.48 257.316 266.304 257.7 265.952C258.116 265.6 258.5 264.976 258.852 264.08C259.236 263.184 259.588 261.952 259.908 260.384C260.228 258.816 260.516 256.848 260.772 254.48C261.06 252.08 261.316 249.184 261.54 245.792H281.364V272ZM295.742 256.16C295.742 256.704 295.71 257.376 295.646 258.176C295.614 258.976 295.566 259.792 295.502 260.624C295.47 261.456 295.422 262.192 295.358 262.832C295.294 263.472 295.246 263.92 295.214 264.176L307.31 245.792H315.902V272H308.99V261.536C308.99 260.672 309.022 259.728 309.086 258.704C309.15 257.648 309.214 256.672 309.278 255.776C309.374 254.848 309.438 254.144 309.47 253.664L297.422 272H288.83V245.792H295.742V256.16ZM332.929 245.312C334.817 245.312 336.577 245.568 338.209 246.08C339.873 246.56 341.201 247.312 342.193 248.336C343.217 249.36 343.729 250.672 343.729 252.272C343.729 253.84 343.249 255.088 342.289 256.016C341.361 256.944 340.097 257.616 338.497 258.032V258.272C339.617 258.528 340.625 258.896 341.521 259.376C342.417 259.824 343.121 260.448 343.633 261.248C344.177 262.016 344.449 263.056 344.449 264.368C344.449 265.808 343.985 267.152 343.057 268.4C342.161 269.616 340.753 270.608 338.833 271.376C336.945 272.112 334.513 272.48 331.537 272.48C330.129 272.48 328.801 272.416 327.553 272.288C326.305 272.16 325.169 271.984 324.145 271.76C323.121 271.504 322.225 271.2 321.457 270.848V264.944C322.545 265.456 323.873 265.92 325.441 266.336C327.041 266.752 328.737 266.96 330.529 266.96C331.841 266.96 333.009 266.864 334.033 266.672C335.089 266.48 335.921 266.16 336.529 265.712C337.169 265.264 337.489 264.672 337.489 263.936C337.489 263.232 337.217 262.656 336.673 262.208C336.129 261.728 335.313 261.376 334.225 261.152C333.137 260.928 331.745 260.816 330.049 260.816H327.265V255.872H329.905C332.273 255.872 334.097 255.68 335.377 255.296C336.689 254.912 337.345 254.192 337.345 253.136C337.345 252.304 336.929 251.68 336.097 251.264C335.265 250.816 333.905 250.592 332.017 250.592C330.769 250.592 329.409 250.736 327.937 251.024C326.465 251.312 325.073 251.728 323.761 252.272L321.649 247.28C323.153 246.704 324.801 246.24 326.593 245.888C328.385 245.504 330.497 245.312 332.929 245.312ZM366.054 256.16C366.054 256.704 366.022 257.376 365.958 258.176C365.926 258.976 365.878 259.792 365.814 260.624C365.782 261.456 365.734 262.192 365.67 262.832C365.606 263.472 365.558 263.92 365.526 264.176L377.622 245.792H386.214V272H379.302V261.536C379.302 260.672 379.334 259.728 379.398 258.704C379.462 257.648 379.526 256.672 379.59 255.776C379.686 254.848 379.75 254.144 379.782 253.664L367.734 272H359.142V245.792H366.054V256.16ZM413.486 272.48C410.894 272.48 408.686 272.016 406.862 271.088C405.038 270.128 403.646 268.656 402.686 266.672C401.726 264.688 401.246 262.144 401.246 259.04C401.246 255.84 401.79 253.232 402.878 251.216C403.966 249.2 405.47 247.712 407.39 246.752C409.342 245.792 411.582 245.312 414.11 245.312C415.902 245.312 417.454 245.488 418.766 245.84C420.11 246.192 421.278 246.608 422.27 247.088L420.158 252.608C419.038 252.16 417.982 251.792 416.99 251.504C416.03 251.216 415.07 251.072 414.11 251.072C412.862 251.072 411.822 251.376 410.99 251.984C410.158 252.56 409.534 253.44 409.118 254.624C408.734 255.776 408.542 257.232 408.542 258.992C408.542 260.72 408.75 262.16 409.166 263.312C409.614 264.432 410.254 265.28 411.086 265.856C411.918 266.4 412.926 266.672 414.11 266.672C415.614 266.672 416.942 266.48 418.094 266.096C419.246 265.68 420.366 265.12 421.454 264.416V270.512C420.366 271.216 419.214 271.712 417.998 272C416.814 272.32 415.31 272.48 413.486 272.48ZM449.182 251.168H440.59V272H433.438V251.168H424.846V245.792H449.182V251.168ZM464.769 245.264C468.289 245.264 470.977 246.032 472.833 247.568C474.721 249.072 475.665 251.392 475.665 254.528V272H470.673L469.281 268.448H469.089C468.353 269.376 467.585 270.144 466.785 270.752C466.017 271.36 465.121 271.792 464.097 272.048C463.105 272.336 461.873 272.48 460.401 272.48C458.865 272.48 457.473 272.192 456.225 271.616C455.009 271.008 454.049 270.096 453.345 268.88C452.641 267.632 452.289 266.064 452.289 264.176C452.289 261.392 453.265 259.344 455.217 258.032C457.169 256.688 460.097 255.952 464.001 255.824L468.561 255.68V254.528C468.561 253.152 468.193 252.144 467.457 251.504C466.753 250.864 465.761 250.544 464.481 250.544C463.201 250.544 461.953 250.736 460.737 251.12C459.521 251.472 458.305 251.92 457.089 252.464L454.737 247.616C456.145 246.88 457.697 246.304 459.393 245.888C461.121 245.472 462.913 245.264 464.769 245.264ZM465.777 259.952C463.473 260.016 461.873 260.432 460.977 261.2C460.081 261.968 459.633 262.976 459.633 264.224C459.633 265.312 459.953 266.096 460.593 266.576C461.233 267.024 462.065 267.248 463.089 267.248C464.625 267.248 465.921 266.8 466.977 265.904C468.033 264.976 468.561 263.68 468.561 262.016V259.856L465.777 259.952ZM504.682 251.168H496.09V272H488.938V251.168H480.346V245.792H504.682V251.168ZM516.429 256.16C516.429 256.704 516.397 257.376 516.333 258.176C516.301 258.976 516.253 259.792 516.189 260.624C516.157 261.456 516.109 262.192 516.045 262.832C515.981 263.472 515.933 263.92 515.901 264.176L527.997 245.792H536.589V272H529.677V261.536C529.677 260.672 529.709 259.728 529.773 258.704C529.837 257.648 529.901 256.672 529.965 255.776C530.061 254.848 530.125 254.144 530.157 253.664L518.109 272H509.517V245.792H516.429V256.16ZM554.72 272.48C552.128 272.48 549.92 272.016 548.096 271.088C546.272 270.128 544.88 268.656 543.92 266.672C542.96 264.688 542.48 262.144 542.48 259.04C542.48 255.84 543.024 253.232 544.112 251.216C545.2 249.2 546.704 247.712 548.624 246.752C550.576 245.792 552.816 245.312 555.344 245.312C557.136 245.312 558.688 245.488 560 245.84C561.344 246.192 562.512 246.608 563.504 247.088L561.392 252.608C560.272 252.16 559.216 251.792 558.224 251.504C557.264 251.216 556.304 251.072 555.344 251.072C554.096 251.072 553.056 251.376 552.224 251.984C551.392 252.56 550.768 253.44 550.352 254.624C549.968 255.776 549.776 257.232 549.776 258.992C549.776 260.72 549.984 262.16 550.4 263.312C550.848 264.432 551.488 265.28 552.32 265.856C553.152 266.4 554.16 266.672 555.344 266.672C556.848 266.672 558.176 266.48 559.328 266.096C560.48 265.68 561.6 265.12 562.688 264.416V270.512C561.6 271.216 560.448 271.712 559.232 272C558.048 272.32 556.544 272.48 554.72 272.48ZM590.417 251.168H581.825V272H574.673V251.168H566.081V245.792H590.417V251.168ZM602.164 256.16C602.164 256.704 602.132 257.376 602.068 258.176C602.036 258.976 601.988 259.792 601.924 260.624C601.892 261.456 601.844 262.192 601.78 262.832C601.716 263.472 601.668 263.92 601.636 264.176L613.732 245.792H622.324V272H615.412V261.536C615.412 260.672 615.444 259.728 615.508 258.704C615.572 257.648 615.636 256.672 615.7 255.776C615.796 254.848 615.86 254.144 615.892 253.664L603.844 272H595.252V245.792H602.164V256.16ZM646.983 245.792H654.855L644.487 258.368L655.767 272H647.655L636.951 258.704V272H629.799V245.792H636.951V258.512L646.983 245.792ZM670.269 245.264C673.789 245.264 676.477 246.032 678.333 247.568C680.221 249.072 681.165 251.392 681.165 254.528V272H676.173L674.781 268.448H674.589C673.853 269.376 673.085 270.144 672.285 270.752C671.517 271.36 670.621 271.792 669.597 272.048C668.605 272.336 667.373 272.48 665.901 272.48C664.365 272.48 662.973 272.192 661.725 271.616C660.509 271.008 659.549 270.096 658.845 268.88C658.141 267.632 657.789 266.064 657.789 264.176C657.789 261.392 658.765 259.344 660.717 258.032C662.669 256.688 665.597 255.952 669.501 255.824L674.061 255.68V254.528C674.061 253.152 673.693 252.144 672.957 251.504C672.253 250.864 671.261 250.544 669.981 250.544C668.701 250.544 667.453 250.736 666.237 251.12C665.021 251.472 663.805 251.92 662.589 252.464L660.237 247.616C661.645 246.88 663.197 246.304 664.893 245.888C666.621 245.472 668.413 245.264 670.269 245.264ZM671.277 259.952C668.973 260.016 667.373 260.432 666.477 261.2C665.581 261.968 665.133 262.976 665.133 264.224C665.133 265.312 665.453 266.096 666.093 266.576C666.733 267.024 667.565 267.248 668.589 267.248C670.125 267.248 671.421 266.8 672.477 265.904C673.533 264.976 674.061 263.68 674.061 262.016V259.856L671.277 259.952ZM343.526 308.168H334.934V329H327.782V308.168H319.19V302.792H343.526V308.168ZM362.953 302.312C365.897 302.312 368.281 303.464 370.105 305.768C371.929 308.04 372.841 311.4 372.841 315.848C372.841 318.824 372.409 321.336 371.545 323.384C370.681 325.4 369.497 326.92 367.993 327.944C366.489 328.968 364.745 329.48 362.761 329.48C361.513 329.48 360.425 329.32 359.497 329C358.601 328.68 357.833 328.264 357.193 327.752C356.553 327.24 355.993 326.696 355.513 326.12H355.129C355.257 326.728 355.353 327.368 355.417 328.04C355.481 328.68 355.513 329.32 355.513 329.96V340.52H348.361V302.792H354.169L355.177 306.2H355.513C355.993 305.496 356.569 304.856 357.241 304.28C357.913 303.672 358.713 303.192 359.641 302.84C360.601 302.488 361.705 302.312 362.953 302.312ZM360.649 308.024C359.401 308.024 358.409 308.28 357.673 308.792C356.937 309.304 356.393 310.088 356.041 311.144C355.721 312.168 355.545 313.464 355.513 315.032V315.8C355.513 317.496 355.673 318.936 355.993 320.12C356.313 321.272 356.857 322.152 357.625 322.76C358.393 323.368 359.433 323.672 360.745 323.672C361.833 323.672 362.729 323.368 363.433 322.76C364.137 322.152 364.665 321.256 365.017 320.072C365.369 318.888 365.545 317.448 365.545 315.752C365.545 313.192 365.145 311.272 364.345 309.992C363.577 308.68 362.345 308.024 360.649 308.024ZM389.536 302.312C391.968 302.312 394.048 302.776 395.776 303.704C397.536 304.632 398.896 305.976 399.856 307.736C400.816 309.496 401.296 311.656 401.296 314.216V317.672H384.4C384.464 319.688 385.056 321.272 386.176 322.424C387.328 323.576 388.912 324.152 390.928 324.152C392.624 324.152 394.16 323.992 395.536 323.672C396.912 323.32 398.336 322.792 399.808 322.088V327.608C398.528 328.248 397.168 328.712 395.728 329C394.32 329.32 392.608 329.48 390.592 329.48C387.968 329.48 385.648 329 383.632 328.04C381.616 327.048 380.032 325.56 378.88 323.576C377.728 321.592 377.152 319.096 377.152 316.088C377.152 313.016 377.664 310.472 378.688 308.456C379.744 306.408 381.2 304.872 383.056 303.848C384.912 302.824 387.072 302.312 389.536 302.312ZM389.584 307.4C388.208 307.4 387.056 307.848 386.128 308.744C385.232 309.64 384.704 311.032 384.544 312.92H394.576C394.576 311.864 394.384 310.92 394 310.088C393.648 309.256 393.104 308.6 392.368 308.12C391.632 307.64 390.704 307.4 389.584 307.4ZM414.248 302.792V312.872H424.232V302.792H431.384V329H424.232V318.2H414.248V329H407.096V302.792H414.248ZM462.445 302.792V323.768H466.285V338.408H459.853V329H442.237V338.408H435.805V323.768H438.013C439.165 322.008 440.141 320.008 440.941 317.768C441.741 315.496 442.381 313.08 442.861 310.52C443.341 307.96 443.693 305.384 443.917 302.792H462.445ZM449.917 308.168C449.661 310.088 449.341 311.96 448.957 313.784C448.573 315.576 448.093 317.304 447.517 318.968C446.973 320.632 446.301 322.232 445.501 323.768H455.293V308.168H449.917ZM494.56 315.848C494.56 318.024 494.256 319.96 493.648 321.656C493.072 323.352 492.224 324.792 491.104 325.976C490.016 327.128 488.688 328.008 487.12 328.616C485.552 329.192 483.776 329.48 481.792 329.48C479.968 329.48 478.272 329.192 476.704 328.616C475.168 328.008 473.84 327.128 472.72 325.976C471.6 324.792 470.72 323.352 470.08 321.656C469.472 319.96 469.168 318.024 469.168 315.848C469.168 312.936 469.68 310.488 470.704 308.504C471.728 306.488 473.2 304.952 475.12 303.896C477.04 302.84 479.312 302.312 481.936 302.312C484.4 302.312 486.576 302.84 488.464 303.896C490.352 304.952 491.84 306.488 492.928 308.504C494.016 310.488 494.56 312.936 494.56 315.848ZM476.464 315.848C476.464 317.576 476.64 319.032 476.992 320.216C477.376 321.368 477.968 322.248 478.768 322.856C479.568 323.432 480.608 323.72 481.888 323.72C483.168 323.72 484.192 323.432 484.96 322.856C485.76 322.248 486.336 321.368 486.688 320.216C487.072 319.032 487.264 317.576 487.264 315.848C487.264 314.12 487.072 312.68 486.688 311.528C486.336 310.376 485.76 309.512 484.96 308.936C484.16 308.36 483.12 308.072 481.84 308.072C479.952 308.072 478.576 308.728 477.712 310.04C476.88 311.32 476.464 313.256 476.464 315.848ZM523.703 309.656C523.703 311.064 523.255 312.264 522.359 313.256C521.495 314.248 520.199 314.888 518.471 315.176V315.368C520.295 315.592 521.751 316.216 522.839 317.24C523.959 318.264 524.519 319.576 524.519 321.176C524.519 322.296 524.295 323.336 523.847 324.296C523.431 325.256 522.759 326.088 521.831 326.792C520.903 327.496 519.703 328.04 518.231 328.424C516.791 328.808 515.031 329 512.951 329H500.471V302.792H512.951C514.999 302.792 516.823 303.016 518.423 303.464C520.055 303.88 521.335 304.584 522.263 305.576C523.223 306.568 523.703 307.928 523.703 309.656ZM517.127 320.792C517.127 319.768 516.727 319.032 515.927 318.584C515.127 318.104 513.927 317.864 512.327 317.864H507.623V324.056H512.471C513.815 324.056 514.919 323.816 515.783 323.336C516.679 322.824 517.127 321.976 517.127 320.792ZM516.455 310.232C516.455 309.4 516.135 308.792 515.495 308.408C514.855 308.024 513.911 307.832 512.663 307.832H507.623V313.016H511.847C513.351 313.016 514.487 312.808 515.255 312.392C516.055 311.944 516.455 311.224 516.455 310.232Z" fill="black"/>
<rect x="8" y="431" width="844" height="147" rx="73.5" fill="#2A2A30" fill-opacity="0.7"/>
<rect y="410" width="844" height="147" rx="73.5" fill="#945053"/>
<path d="M92.9841 472V437.728H114.632V443.728H100.232V450.88H103.112C106.344 450.88 108.984 451.328 111.032 452.224C113.112 453.12 114.648 454.352 115.64 455.92C116.632 457.488 117.128 459.28 117.128 461.296C117.128 463.536 116.632 465.456 115.64 467.056C114.648 468.656 113.112 469.888 111.032 470.752C108.952 471.584 106.264 472 102.968 472H92.9841ZM102.68 466.048C104.888 466.048 106.616 465.696 107.864 464.992C109.144 464.288 109.784 463.056 109.784 461.296C109.784 460.08 109.464 459.152 108.824 458.512C108.216 457.872 107.336 457.44 106.184 457.216C105.064 456.96 103.704 456.832 102.104 456.832H100.232V466.048H102.68ZM123.017 472V445.792H130.169V455.92H133.625C136.313 455.92 138.521 456.208 140.249 456.784C141.977 457.328 143.257 458.176 144.089 459.328C144.953 460.48 145.385 461.92 145.385 463.648C145.385 465.344 144.985 466.816 144.185 468.064C143.417 469.312 142.185 470.288 140.489 470.992C138.825 471.664 136.617 472 133.865 472H123.017ZM133.481 467.056C134.889 467.056 136.025 466.8 136.889 466.288C137.785 465.776 138.233 464.928 138.233 463.744C138.233 462.72 137.817 461.984 136.985 461.536C136.185 461.088 134.985 460.864 133.385 460.864H130.169V467.056H133.481ZM149.177 472V445.792H156.329V472H149.177ZM174.455 472.48C171.863 472.48 169.655 472.016 167.831 471.088C166.007 470.128 164.615 468.656 163.655 466.672C162.695 464.688 162.215 462.144 162.215 459.04C162.215 455.84 162.759 453.232 163.847 451.216C164.935 449.2 166.439 447.712 168.359 446.752C170.311 445.792 172.551 445.312 175.079 445.312C176.871 445.312 178.423 445.488 179.735 445.84C181.079 446.192 182.247 446.608 183.239 447.088L181.127 452.608C180.007 452.16 178.951 451.792 177.959 451.504C176.999 451.216 176.039 451.072 175.079 451.072C173.831 451.072 172.791 451.376 171.959 451.984C171.127 452.56 170.503 453.44 170.087 454.624C169.703 455.776 169.511 457.232 169.511 458.992C169.511 460.72 169.719 462.16 170.135 463.312C170.583 464.432 171.223 465.28 172.055 465.856C172.887 466.4 173.895 466.672 175.079 466.672C176.583 466.672 177.911 466.48 179.063 466.096C180.215 465.68 181.335 465.12 182.423 464.416V470.512C181.335 471.216 180.183 471.712 178.967 472C177.783 472.32 176.279 472.48 174.455 472.48ZM210.151 451.168H201.559V472H194.407V451.168H185.815V445.792H210.151V451.168ZM229.578 445.312C232.522 445.312 234.906 446.464 236.73 448.768C238.554 451.04 239.466 454.4 239.466 458.848C239.466 461.824 239.034 464.336 238.17 466.384C237.306 468.4 236.122 469.92 234.618 470.944C233.114 471.968 231.37 472.48 229.386 472.48C228.138 472.48 227.05 472.32 226.122 472C225.226 471.68 224.458 471.264 223.818 470.752C223.178 470.24 222.618 469.696 222.138 469.12H221.754C221.882 469.728 221.978 470.368 222.042 471.04C222.106 471.68 222.138 472.32 222.138 472.96V483.52H214.986V445.792H220.794L221.802 449.2H222.138C222.618 448.496 223.194 447.856 223.866 447.28C224.538 446.672 225.338 446.192 226.266 445.84C227.226 445.488 228.33 445.312 229.578 445.312ZM227.274 451.024C226.026 451.024 225.034 451.28 224.298 451.792C223.562 452.304 223.018 453.088 222.666 454.144C222.346 455.168 222.17 456.464 222.138 458.032V458.8C222.138 460.496 222.298 461.936 222.618 463.12C222.938 464.272 223.482 465.152 224.25 465.76C225.018 466.368 226.058 466.672 227.37 466.672C228.458 466.672 229.354 466.368 230.058 465.76C230.762 465.152 231.29 464.256 231.642 463.072C231.994 461.888 232.17 460.448 232.17 458.752C232.17 456.192 231.77 454.272 230.97 452.992C230.202 451.68 228.97 451.024 227.274 451.024ZM269.169 458.848C269.169 461.024 268.865 462.96 268.257 464.656C267.681 466.352 266.833 467.792 265.713 468.976C264.625 470.128 263.297 471.008 261.729 471.616C260.161 472.192 258.385 472.48 256.401 472.48C254.577 472.48 252.881 472.192 251.313 471.616C249.777 471.008 248.449 470.128 247.329 468.976C246.209 467.792 245.329 466.352 244.689 464.656C244.081 462.96 243.777 461.024 243.777 458.848C243.777 455.936 244.289 453.488 245.313 451.504C246.337 449.488 247.809 447.952 249.729 446.896C251.649 445.84 253.921 445.312 256.545 445.312C259.009 445.312 261.185 445.84 263.073 446.896C264.961 447.952 266.449 449.488 267.537 451.504C268.625 453.488 269.169 455.936 269.169 458.848ZM251.073 458.848C251.073 460.576 251.249 462.032 251.601 463.216C251.985 464.368 252.577 465.248 253.377 465.856C254.177 466.432 255.217 466.72 256.497 466.72C257.777 466.72 258.801 466.432 259.569 465.856C260.369 465.248 260.945 464.368 261.297 463.216C261.681 462.032 261.873 460.576 261.873 458.848C261.873 457.12 261.681 455.68 261.297 454.528C260.945 453.376 260.369 452.512 259.569 451.936C258.769 451.36 257.729 451.072 256.449 451.072C254.561 451.072 253.185 451.728 252.321 453.04C251.489 454.32 251.073 456.256 251.073 458.848ZM285.88 445.312C288.312 445.312 290.392 445.776 292.12 446.704C293.88 447.632 295.24 448.976 296.2 450.736C297.16 452.496 297.64 454.656 297.64 457.216V460.672H280.744C280.808 462.688 281.4 464.272 282.52 465.424C283.672 466.576 285.256 467.152 287.272 467.152C288.968 467.152 290.504 466.992 291.88 466.672C293.256 466.32 294.68 465.792 296.152 465.088V470.608C294.872 471.248 293.512 471.712 292.072 472C290.664 472.32 288.952 472.48 286.936 472.48C284.312 472.48 281.992 472 279.976 471.04C277.96 470.048 276.376 468.56 275.224 466.576C274.072 464.592 273.496 462.096 273.496 459.088C273.496 456.016 274.008 453.472 275.032 451.456C276.088 449.408 277.544 447.872 279.4 446.848C281.256 445.824 283.416 445.312 285.88 445.312ZM285.928 450.4C284.552 450.4 283.4 450.848 282.472 451.744C281.576 452.64 281.048 454.032 280.888 455.92H290.92C290.92 454.864 290.728 453.92 290.344 453.088C289.992 452.256 289.448 451.6 288.712 451.12C287.976 450.64 287.048 450.4 285.928 450.4ZM323.236 472.48C320.644 472.48 318.436 472.016 316.612 471.088C314.788 470.128 313.396 468.656 312.436 466.672C311.476 464.688 310.996 462.144 310.996 459.04C310.996 455.84 311.54 453.232 312.628 451.216C313.716 449.2 315.22 447.712 317.14 446.752C319.092 445.792 321.332 445.312 323.86 445.312C325.652 445.312 327.204 445.488 328.516 445.84C329.86 446.192 331.028 446.608 332.02 447.088L329.908 452.608C328.788 452.16 327.732 451.792 326.74 451.504C325.78 451.216 324.82 451.072 323.86 451.072C322.612 451.072 321.572 451.376 320.74 451.984C319.908 452.56 319.284 453.44 318.868 454.624C318.484 455.776 318.292 457.232 318.292 458.992C318.292 460.72 318.5 462.16 318.916 463.312C319.364 464.432 320.004 465.28 320.836 465.856C321.668 466.4 322.676 466.672 323.86 466.672C325.364 466.672 326.692 466.48 327.844 466.096C328.996 465.68 330.116 465.12 331.204 464.416V470.512C330.116 471.216 328.964 471.712 327.748 472C326.564 472.32 325.06 472.48 323.236 472.48ZM361.044 458.848C361.044 461.024 360.74 462.96 360.132 464.656C359.556 466.352 358.708 467.792 357.588 468.976C356.5 470.128 355.172 471.008 353.604 471.616C352.036 472.192 350.26 472.48 348.276 472.48C346.452 472.48 344.756 472.192 343.188 471.616C341.652 471.008 340.324 470.128 339.204 468.976C338.084 467.792 337.204 466.352 336.564 464.656C335.956 462.96 335.652 461.024 335.652 458.848C335.652 455.936 336.164 453.488 337.188 451.504C338.212 449.488 339.684 447.952 341.604 446.896C343.524 445.84 345.796 445.312 348.42 445.312C350.884 445.312 353.06 445.84 354.948 446.896C356.836 447.952 358.324 449.488 359.412 451.504C360.5 453.488 361.044 455.936 361.044 458.848ZM342.948 458.848C342.948 460.576 343.124 462.032 343.476 463.216C343.86 464.368 344.452 465.248 345.252 465.856C346.052 466.432 347.092 466.72 348.372 466.72C349.652 466.72 350.676 466.432 351.444 465.856C352.244 465.248 352.82 464.368 353.172 463.216C353.556 462.032 353.748 460.576 353.748 458.848C353.748 457.12 353.556 455.68 353.172 454.528C352.82 453.376 352.244 452.512 351.444 451.936C350.644 451.36 349.604 451.072 348.324 451.072C346.436 451.072 345.06 451.728 344.196 453.04C343.364 454.32 342.948 456.256 342.948 458.848ZM376.507 445.312C378.395 445.312 380.155 445.568 381.787 446.08C383.451 446.56 384.779 447.312 385.771 448.336C386.795 449.36 387.307 450.672 387.307 452.272C387.307 453.84 386.827 455.088 385.867 456.016C384.939 456.944 383.675 457.616 382.075 458.032V458.272C383.195 458.528 384.203 458.896 385.099 459.376C385.995 459.824 386.699 460.448 387.211 461.248C387.755 462.016 388.027 463.056 388.027 464.368C388.027 465.808 387.563 467.152 386.635 468.4C385.739 469.616 384.331 470.608 382.411 471.376C380.523 472.112 378.091 472.48 375.115 472.48C373.707 472.48 372.379 472.416 371.131 472.288C369.883 472.16 368.747 471.984 367.723 471.76C366.699 471.504 365.803 471.2 365.035 470.848V464.944C366.123 465.456 367.451 465.92 369.019 466.336C370.619 466.752 372.315 466.96 374.107 466.96C375.419 466.96 376.587 466.864 377.611 466.672C378.667 466.48 379.499 466.16 380.107 465.712C380.747 465.264 381.067 464.672 381.067 463.936C381.067 463.232 380.795 462.656 380.251 462.208C379.707 461.728 378.891 461.376 377.803 461.152C376.715 460.928 375.323 460.816 373.627 460.816H370.843V455.872H373.483C375.851 455.872 377.675 455.68 378.955 455.296C380.267 454.912 380.923 454.192 380.923 453.136C380.923 452.304 380.507 451.68 379.675 451.264C378.843 450.816 377.483 450.592 375.595 450.592C374.347 450.592 372.987 450.736 371.515 451.024C370.043 451.312 368.651 451.728 367.339 452.272L365.227 447.28C366.731 446.704 368.379 446.24 370.171 445.888C371.963 445.504 374.075 445.312 376.507 445.312ZM417.148 445.792V466.768H420.988V481.408H414.556V472H396.94V481.408H390.508V466.768H392.716C393.868 465.008 394.844 463.008 395.644 460.768C396.444 458.496 397.084 456.08 397.564 453.52C398.044 450.96 398.396 448.384 398.62 445.792H417.148ZM404.62 451.168C404.364 453.088 404.044 454.96 403.66 456.784C403.276 458.576 402.796 460.304 402.22 461.968C401.676 463.632 401.004 465.232 400.204 466.768H409.996V451.168H404.62ZM436.207 445.264C439.727 445.264 442.415 446.032 444.271 447.568C446.159 449.072 447.103 451.392 447.103 454.528V472H442.111L440.719 468.448H440.527C439.791 469.376 439.023 470.144 438.223 470.752C437.455 471.36 436.559 471.792 435.535 472.048C434.543 472.336 433.311 472.48 431.839 472.48C430.303 472.48 428.911 472.192 427.663 471.616C426.447 471.008 425.487 470.096 424.783 468.88C424.079 467.632 423.727 466.064 423.727 464.176C423.727 461.392 424.703 459.344 426.655 458.032C428.607 456.688 431.535 455.952 435.439 455.824L439.999 455.68V454.528C439.999 453.152 439.631 452.144 438.895 451.504C438.191 450.864 437.199 450.544 435.919 450.544C434.639 450.544 433.391 450.736 432.175 451.12C430.959 451.472 429.743 451.92 428.527 452.464L426.175 447.616C427.583 446.88 429.135 446.304 430.831 445.888C432.559 445.472 434.351 445.264 436.207 445.264ZM437.215 459.952C434.911 460.016 433.311 460.432 432.415 461.2C431.519 461.968 431.071 462.976 431.071 464.224C431.071 465.312 431.391 466.096 432.031 466.576C432.671 467.024 433.503 467.248 434.527 467.248C436.063 467.248 437.359 466.8 438.415 465.904C439.471 464.976 439.999 463.68 439.999 462.016V459.856L437.215 459.952ZM461.576 445.792V455.872H471.56V445.792H478.712V472H471.56V461.2H461.576V472H454.424V445.792H461.576ZM493.117 456.16C493.117 456.704 493.085 457.376 493.021 458.176C492.989 458.976 492.941 459.792 492.877 460.624C492.845 461.456 492.797 462.192 492.733 462.832C492.669 463.472 492.621 463.92 492.589 464.176L504.685 445.792H513.277V472H506.365V461.536C506.365 460.672 506.397 459.728 506.461 458.704C506.525 457.648 506.589 456.672 506.653 455.776C506.749 454.848 506.813 454.144 506.845 453.664L494.797 472H486.205V445.792H493.117V456.16ZM531.552 445.312C533.984 445.312 536.064 445.776 537.792 446.704C539.552 447.632 540.912 448.976 541.872 450.736C542.832 452.496 543.312 454.656 543.312 457.216V460.672H526.416C526.48 462.688 527.072 464.272 528.192 465.424C529.344 466.576 530.928 467.152 532.944 467.152C534.64 467.152 536.176 466.992 537.552 466.672C538.928 466.32 540.352 465.792 541.824 465.088V470.608C540.544 471.248 539.184 471.712 537.744 472C536.336 472.32 534.624 472.48 532.608 472.48C529.984 472.48 527.664 472 525.648 471.04C523.632 470.048 522.048 468.56 520.896 466.576C519.744 464.592 519.168 462.096 519.168 459.088C519.168 456.016 519.68 453.472 520.704 451.456C521.76 449.408 523.216 447.872 525.072 446.848C526.928 445.824 529.088 445.312 531.552 445.312ZM531.6 450.4C530.224 450.4 529.072 450.848 528.144 451.744C527.248 452.64 526.72 454.032 526.56 455.92H536.592C536.592 454.864 536.4 453.92 536.016 453.088C535.664 452.256 535.12 451.6 534.384 451.12C533.648 450.64 532.72 450.4 531.6 450.4ZM567.804 445.312C569.692 445.312 571.452 445.568 573.084 446.08C574.748 446.56 576.076 447.312 577.068 448.336C578.092 449.36 578.604 450.672 578.604 452.272C578.604 453.84 578.124 455.088 577.164 456.016C576.236 456.944 574.972 457.616 573.372 458.032V458.272C574.492 458.528 575.5 458.896 576.396 459.376C577.292 459.824 577.996 460.448 578.508 461.248C579.052 462.016 579.324 463.056 579.324 464.368C579.324 465.808 578.86 467.152 577.932 468.4C577.036 469.616 575.628 470.608 573.708 471.376C571.82 472.112 569.388 472.48 566.412 472.48C565.004 472.48 563.676 472.416 562.428 472.288C561.18 472.16 560.044 471.984 559.02 471.76C557.996 471.504 557.1 471.2 556.332 470.848V464.944C557.42 465.456 558.748 465.92 560.316 466.336C561.916 466.752 563.612 466.96 565.404 466.96C566.716 466.96 567.884 466.864 568.908 466.672C569.964 466.48 570.796 466.16 571.404 465.712C572.044 465.264 572.364 464.672 572.364 463.936C572.364 463.232 572.092 462.656 571.548 462.208C571.004 461.728 570.188 461.376 569.1 461.152C568.012 460.928 566.62 460.816 564.924 460.816H562.14V455.872H564.78C567.148 455.872 568.972 455.68 570.252 455.296C571.564 454.912 572.22 454.192 572.22 453.136C572.22 452.304 571.804 451.68 570.972 451.264C570.14 450.816 568.78 450.592 566.892 450.592C565.644 450.592 564.284 450.736 562.812 451.024C561.34 451.312 559.948 451.728 558.636 452.272L556.524 447.28C558.028 446.704 559.676 446.24 561.468 445.888C563.26 445.504 565.372 445.312 567.804 445.312ZM595.629 445.264C599.149 445.264 601.837 446.032 603.693 447.568C605.581 449.072 606.525 451.392 606.525 454.528V472H601.533L600.141 468.448H599.949C599.213 469.376 598.445 470.144 597.645 470.752C596.877 471.36 595.981 471.792 594.957 472.048C593.965 472.336 592.733 472.48 591.261 472.48C589.725 472.48 588.333 472.192 587.085 471.616C585.869 471.008 584.909 470.096 584.205 468.88C583.501 467.632 583.149 466.064 583.149 464.176C583.149 461.392 584.125 459.344 586.077 458.032C588.029 456.688 590.957 455.952 594.861 455.824L599.421 455.68V454.528C599.421 453.152 599.053 452.144 598.317 451.504C597.613 450.864 596.621 450.544 595.341 450.544C594.061 450.544 592.813 450.736 591.597 451.12C590.381 451.472 589.165 451.92 587.949 452.464L585.597 447.616C587.005 446.88 588.557 446.304 590.253 445.888C591.981 445.472 593.773 445.264 595.629 445.264ZM596.637 459.952C594.333 460.016 592.733 460.432 591.837 461.2C590.941 461.968 590.493 462.976 590.493 464.224C590.493 465.312 590.813 466.096 591.453 466.576C592.093 467.024 592.925 467.248 593.949 467.248C595.485 467.248 596.781 466.8 597.837 465.904C598.893 464.976 599.421 463.68 599.421 462.016V459.856L596.637 459.952ZM637.414 445.792V466.768H641.254V481.408H634.822V472H617.206V481.408H610.774V466.768H612.982C614.134 465.008 615.11 463.008 615.91 460.768C616.71 458.496 617.35 456.08 617.83 453.52C618.31 450.96 618.662 448.384 618.886 445.792H637.414ZM624.886 451.168C624.63 453.088 624.31 454.96 623.926 456.784C623.542 458.576 623.062 460.304 622.486 461.968C621.942 463.632 621.27 465.232 620.47 466.768H630.262V451.168H624.886ZM656.473 445.264C659.993 445.264 662.681 446.032 664.537 447.568C666.425 449.072 667.369 451.392 667.369 454.528V472H662.377L660.985 468.448H660.793C660.057 469.376 659.289 470.144 658.489 470.752C657.721 471.36 656.825 471.792 655.801 472.048C654.809 472.336 653.577 472.48 652.105 472.48C650.569 472.48 649.177 472.192 647.929 471.616C646.713 471.008 645.753 470.096 645.049 468.88C644.345 467.632 643.993 466.064 643.993 464.176C643.993 461.392 644.969 459.344 646.921 458.032C648.873 456.688 651.801 455.952 655.705 455.824L660.265 455.68V454.528C660.265 453.152 659.897 452.144 659.161 451.504C658.457 450.864 657.465 450.544 656.185 450.544C654.905 450.544 653.657 450.736 652.441 451.12C651.225 451.472 650.009 451.92 648.793 452.464L646.441 447.616C647.849 446.88 649.401 446.304 651.097 445.888C652.825 445.472 654.617 445.264 656.473 445.264ZM657.481 459.952C655.177 460.016 653.577 460.432 652.681 461.2C651.785 461.968 651.337 462.976 651.337 464.224C651.337 465.312 651.657 466.096 652.297 466.576C652.937 467.024 653.769 467.248 654.793 467.248C656.329 467.248 657.625 466.8 658.681 465.904C659.737 464.976 660.265 463.68 660.265 462.016V459.856L657.481 459.952ZM680.977 455.392C680.977 456.512 681.249 457.36 681.793 457.936C682.369 458.512 683.153 458.8 684.145 458.8C685.521 458.8 686.801 458.656 687.985 458.368C689.169 458.048 690.353 457.632 691.537 457.12V445.792H698.689V472H691.537V461.584C690.417 462.192 689.137 462.752 687.697 463.264C686.257 463.744 684.625 463.984 682.801 463.984C680.081 463.984 677.905 463.28 676.273 461.872C674.641 460.464 673.825 458.352 673.825 455.536V445.792H680.977V455.392ZM722.482 445.792V455.872H732.466V445.792H739.618V472H732.466V461.2H722.482V472H715.33V445.792H722.482ZM757.863 445.264C761.383 445.264 764.071 446.032 765.927 447.568C767.815 449.072 768.759 451.392 768.759 454.528V472H763.767L762.375 468.448H762.183C761.447 469.376 760.679 470.144 759.879 470.752C759.111 471.36 758.215 471.792 757.191 472.048C756.199 472.336 754.967 472.48 753.495 472.48C751.959 472.48 750.567 472.192 749.319 471.616C748.103 471.008 747.143 470.096 746.439 468.88C745.735 467.632 745.383 466.064 745.383 464.176C745.383 461.392 746.359 459.344 748.311 458.032C750.263 456.688 753.191 455.952 757.095 455.824L761.655 455.68V454.528C761.655 453.152 761.287 452.144 760.551 451.504C759.847 450.864 758.855 450.544 757.575 450.544C756.295 450.544 755.047 450.736 753.831 451.12C752.615 451.472 751.399 451.92 750.183 452.464L747.831 447.616C749.239 446.88 750.791 446.304 752.487 445.888C754.215 445.472 756.007 445.264 757.863 445.264ZM758.871 459.952C756.567 460.016 754.967 460.432 754.071 461.2C753.175 461.968 752.727 462.976 752.727 464.224C752.727 465.312 753.047 466.096 753.687 466.576C754.327 467.024 755.159 467.248 756.183 467.248C757.719 467.248 759.015 466.8 760.071 465.904C761.127 464.976 761.655 463.68 761.655 462.016V459.856L758.871 459.952ZM111.669 515.848C111.669 518.024 111.365 519.96 110.757 521.656C110.181 523.352 109.333 524.792 108.213 525.976C107.125 527.128 105.797 528.008 104.229 528.616C102.661 529.192 100.885 529.48 98.9012 529.48C97.0772 529.48 95.3812 529.192 93.8132 528.616C92.2772 528.008 90.9492 527.128 89.8292 525.976C88.7092 524.792 87.8292 523.352 87.1892 521.656C86.5812 519.96 86.2772 518.024 86.2772 515.848C86.2772 512.936 86.7892 510.488 87.8132 508.504C88.8372 506.488 90.3092 504.952 92.2292 503.896C94.1492 502.84 96.4212 502.312 99.0452 502.312C101.509 502.312 103.685 502.84 105.573 503.896C107.461 504.952 108.949 506.488 110.037 508.504C111.125 510.488 111.669 512.936 111.669 515.848ZM93.5732 515.848C93.5732 517.576 93.7492 519.032 94.1012 520.216C94.4852 521.368 95.0772 522.248 95.8772 522.856C96.6772 523.432 97.7172 523.72 98.9972 523.72C100.277 523.72 101.301 523.432 102.069 522.856C102.869 522.248 103.445 521.368 103.797 520.216C104.181 519.032 104.373 517.576 104.373 515.848C104.373 514.12 104.181 512.68 103.797 511.528C103.445 510.376 102.869 509.512 102.069 508.936C101.269 508.36 100.229 508.072 98.9492 508.072C97.0612 508.072 95.6852 508.728 94.8212 510.04C93.9892 511.32 93.5732 513.256 93.5732 515.848ZM128.236 529.48C125.644 529.48 123.436 529.016 121.612 528.088C119.788 527.128 118.396 525.656 117.436 523.672C116.476 521.688 115.996 519.144 115.996 516.04C115.996 512.84 116.54 510.232 117.628 508.216C118.716 506.2 120.22 504.712 122.14 503.752C124.092 502.792 126.332 502.312 128.86 502.312C130.652 502.312 132.204 502.488 133.516 502.84C134.86 503.192 136.028 503.608 137.02 504.088L134.908 509.608C133.788 509.16 132.732 508.792 131.74 508.504C130.78 508.216 129.82 508.072 128.86 508.072C127.612 508.072 126.572 508.376 125.74 508.984C124.908 509.56 124.284 510.44 123.868 511.624C123.484 512.776 123.292 514.232 123.292 515.992C123.292 517.72 123.5 519.16 123.916 520.312C124.364 521.432 125.004 522.28 125.836 522.856C126.668 523.4 127.676 523.672 128.86 523.672C130.364 523.672 131.692 523.48 132.844 523.096C133.996 522.68 135.116 522.12 136.204 521.416V527.512C135.116 528.216 133.964 528.712 132.748 529C131.564 529.32 130.06 529.48 128.236 529.48ZM149.388 502.792V512.872H159.372V502.792H166.524V529H159.372V518.2H149.388V529H142.236V502.792H149.388ZM197.825 515.848C197.825 518.024 197.521 519.96 196.913 521.656C196.337 523.352 195.489 524.792 194.369 525.976C193.281 527.128 191.953 528.008 190.385 528.616C188.817 529.192 187.041 529.48 185.057 529.48C183.233 529.48 181.537 529.192 179.969 528.616C178.433 528.008 177.105 527.128 175.985 525.976C174.865 524.792 173.985 523.352 173.345 521.656C172.737 519.96 172.433 518.024 172.433 515.848C172.433 512.936 172.945 510.488 173.969 508.504C174.993 506.488 176.465 504.952 178.385 503.896C180.305 502.84 182.577 502.312 185.201 502.312C187.665 502.312 189.841 502.84 191.729 503.896C193.617 504.952 195.105 506.488 196.193 508.504C197.281 510.488 197.825 512.936 197.825 515.848ZM179.729 515.848C179.729 517.576 179.905 519.032 180.257 520.216C180.641 521.368 181.233 522.248 182.033 522.856C182.833 523.432 183.873 523.72 185.153 523.72C186.433 523.72 187.457 523.432 188.225 522.856C189.025 522.248 189.601 521.368 189.953 520.216C190.337 519.032 190.529 517.576 190.529 515.848C190.529 514.12 190.337 512.68 189.953 511.528C189.601 510.376 189.025 509.512 188.225 508.936C187.425 508.36 186.385 508.072 185.105 508.072C183.217 508.072 181.841 508.728 180.977 510.04C180.145 511.32 179.729 513.256 179.729 515.848ZM226.968 509.656C226.968 511.064 226.52 512.264 225.624 513.256C224.76 514.248 223.464 514.888 221.736 515.176V515.368C223.56 515.592 225.016 516.216 226.104 517.24C227.224 518.264 227.784 519.576 227.784 521.176C227.784 522.296 227.56 523.336 227.112 524.296C226.696 525.256 226.024 526.088 225.096 526.792C224.168 527.496 222.968 528.04 221.496 528.424C220.056 528.808 218.296 529 216.216 529H203.736V502.792H216.216C218.264 502.792 220.088 503.016 221.688 503.464C223.32 503.88 224.6 504.584 225.528 505.576C226.488 506.568 226.968 507.928 226.968 509.656ZM220.392 520.792C220.392 519.768 219.992 519.032 219.192 518.584C218.392 518.104 217.192 517.864 215.592 517.864H210.888V524.056H215.736C217.08 524.056 218.184 523.816 219.048 523.336C219.944 522.824 220.392 521.976 220.392 520.792ZM219.72 510.232C219.72 509.4 219.4 508.792 218.76 508.408C218.12 508.024 217.176 507.832 215.928 507.832H210.888V513.016H215.112C216.616 513.016 217.752 512.808 218.52 512.392C219.32 511.944 219.72 511.224 219.72 510.232ZM244.724 502.312C247.156 502.312 249.236 502.776 250.964 503.704C252.724 504.632 254.084 505.976 255.044 507.736C256.004 509.496 256.484 511.656 256.484 514.216V517.672H239.588C239.652 519.688 240.244 521.272 241.364 522.424C242.516 523.576 244.1 524.152 246.116 524.152C247.812 524.152 249.348 523.992 250.724 523.672C252.1 523.32 253.524 522.792 254.996 522.088V527.608C253.716 528.248 252.356 528.712 250.916 529C249.508 529.32 247.796 529.48 245.78 529.48C243.156 529.48 240.836 529 238.82 528.04C236.804 527.048 235.22 525.56 234.068 523.576C232.916 521.592 232.34 519.096 232.34 516.088C232.34 513.016 232.852 510.472 233.876 508.456C234.932 506.408 236.388 504.872 238.244 503.848C240.1 502.824 242.26 502.312 244.724 502.312ZM244.772 507.4C243.396 507.4 242.244 507.848 241.316 508.744C240.42 509.64 239.892 511.032 239.732 512.92H249.764C249.764 511.864 249.572 510.92 249.188 510.088C248.836 509.256 248.292 508.6 247.556 508.12C246.82 507.64 245.892 507.4 244.772 507.4ZM282.08 529.48C279.488 529.48 277.28 529.016 275.456 528.088C273.632 527.128 272.24 525.656 271.28 523.672C270.32 521.688 269.84 519.144 269.84 516.04C269.84 512.84 270.384 510.232 271.472 508.216C272.56 506.2 274.064 504.712 275.984 503.752C277.936 502.792 280.176 502.312 282.704 502.312C284.496 502.312 286.048 502.488 287.36 502.84C288.704 503.192 289.872 503.608 290.864 504.088L288.752 509.608C287.632 509.16 286.576 508.792 285.584 508.504C284.624 508.216 283.664 508.072 282.704 508.072C281.456 508.072 280.416 508.376 279.584 508.984C278.752 509.56 278.128 510.44 277.712 511.624C277.328 512.776 277.136 514.232 277.136 515.992C277.136 517.72 277.344 519.16 277.76 520.312C278.208 521.432 278.848 522.28 279.68 522.856C280.512 523.4 281.52 523.672 282.704 523.672C284.208 523.672 285.536 523.48 286.688 523.096C287.84 522.68 288.96 522.12 290.048 521.416V527.512C288.96 528.216 287.808 528.712 286.592 529C285.408 529.32 283.904 529.48 282.08 529.48ZM317.776 508.168H309.184V529H302.032V508.168H293.44V502.792H317.776V508.168ZM333.363 502.264C336.883 502.264 339.571 503.032 341.427 504.568C343.315 506.072 344.259 508.392 344.259 511.528V529H339.267L337.875 525.448H337.683C336.947 526.376 336.179 527.144 335.379 527.752C334.611 528.36 333.715 528.792 332.691 529.048C331.699 529.336 330.467 529.48 328.995 529.48C327.459 529.48 326.067 529.192 324.819 528.616C323.603 528.008 322.643 527.096 321.939 525.88C321.235 524.632 320.883 523.064 320.883 521.176C320.883 518.392 321.859 516.344 323.811 515.032C325.763 513.688 328.691 512.952 332.595 512.824L337.155 512.68V511.528C337.155 510.152 336.787 509.144 336.051 508.504C335.347 507.864 334.355 507.544 333.075 507.544C331.795 507.544 330.547 507.736 329.331 508.12C328.115 508.472 326.899 508.92 325.683 509.464L323.331 504.616C324.739 503.88 326.291 503.304 327.987 502.888C329.715 502.472 331.507 502.264 333.363 502.264ZM334.371 516.952C332.067 517.016 330.467 517.432 329.571 518.2C328.675 518.968 328.227 519.976 328.227 521.224C328.227 522.312 328.547 523.096 329.187 523.576C329.827 524.024 330.659 524.248 331.683 524.248C333.219 524.248 334.515 523.8 335.571 522.904C336.627 521.976 337.155 520.68 337.155 519.016V516.856L334.371 516.952ZM373.276 508.168H364.684V529H357.532V508.168H348.94V502.792H373.276V508.168ZM385.023 513.16C385.023 513.704 384.991 514.376 384.927 515.176C384.895 515.976 384.847 516.792 384.783 517.624C384.751 518.456 384.703 519.192 384.639 519.832C384.575 520.472 384.527 520.92 384.495 521.176L396.591 502.792H405.183V529H398.271V518.536C398.271 517.672 398.303 516.728 398.367 515.704C398.431 514.648 398.495 513.672 398.559 512.776C398.655 511.848 398.719 511.144 398.751 510.664L386.703 529H378.111V502.792H385.023V513.16ZM423.314 529.48C420.722 529.48 418.514 529.016 416.69 528.088C414.866 527.128 413.474 525.656 412.514 523.672C411.554 521.688 411.074 519.144 411.074 516.04C411.074 512.84 411.618 510.232 412.706 508.216C413.794 506.2 415.298 504.712 417.218 503.752C419.17 502.792 421.41 502.312 423.938 502.312C425.73 502.312 427.282 502.488 428.594 502.84C429.938 503.192 431.106 503.608 432.098 504.088L429.986 509.608C428.866 509.16 427.81 508.792 426.818 508.504C425.858 508.216 424.898 508.072 423.938 508.072C422.69 508.072 421.65 508.376 420.818 508.984C419.986 509.56 419.362 510.44 418.946 511.624C418.562 512.776 418.37 514.232 418.37 515.992C418.37 517.72 418.578 519.16 418.994 520.312C419.442 521.432 420.082 522.28 420.914 522.856C421.746 523.4 422.754 523.672 423.938 523.672C425.442 523.672 426.77 523.48 427.922 523.096C429.074 522.68 430.194 522.12 431.282 521.416V527.512C430.194 528.216 429.042 528.712 427.826 529C426.642 529.32 425.138 529.48 423.314 529.48ZM459.01 508.168H450.418V529H443.266V508.168H434.674V502.792H459.01V508.168ZM470.758 513.16C470.758 513.704 470.726 514.376 470.662 515.176C470.63 515.976 470.582 516.792 470.518 517.624C470.486 518.456 470.438 519.192 470.374 519.832C470.31 520.472 470.262 520.92 470.23 521.176L482.326 502.792H490.918V529H484.006V518.536C484.006 517.672 484.038 516.728 484.102 515.704C484.166 514.648 484.23 513.672 484.294 512.776C484.39 511.848 484.454 511.144 484.486 510.664L472.438 529H463.846V502.792H470.758V513.16ZM515.576 502.792H523.448L513.08 515.368L524.36 529H516.248L505.544 515.704V529H498.392V502.792H505.544V515.512L515.576 502.792ZM535.023 513.16C535.023 513.704 534.991 514.376 534.927 515.176C534.895 515.976 534.847 516.792 534.783 517.624C534.751 518.456 534.703 519.192 534.639 519.832C534.575 520.472 534.527 520.92 534.495 521.176L546.591 502.792H555.183V529H548.271V518.536C548.271 517.672 548.303 516.728 548.367 515.704C548.431 514.648 548.495 513.672 548.559 512.776C548.655 511.848 548.719 511.144 548.751 510.664L536.703 529H528.111V502.792H535.023V513.16ZM593.495 508.168H584.903V529H577.751V508.168H569.159V502.792H593.495V508.168ZM612.922 502.312C615.866 502.312 618.25 503.464 620.074 505.768C621.898 508.04 622.81 511.4 622.81 515.848C622.81 518.824 622.378 521.336 621.514 523.384C620.65 525.4 619.466 526.92 617.962 527.944C616.458 528.968 614.714 529.48 612.73 529.48C611.482 529.48 610.394 529.32 609.466 529C608.57 528.68 607.802 528.264 607.162 527.752C606.522 527.24 605.962 526.696 605.482 526.12H605.098C605.226 526.728 605.322 527.368 605.386 528.04C605.45 528.68 605.482 529.32 605.482 529.96V540.52H598.33V502.792H604.138L605.146 506.2H605.482C605.962 505.496 606.538 504.856 607.21 504.28C607.882 503.672 608.682 503.192 609.61 502.84C610.57 502.488 611.674 502.312 612.922 502.312ZM610.618 508.024C609.37 508.024 608.378 508.28 607.642 508.792C606.906 509.304 606.362 510.088 606.01 511.144C605.69 512.168 605.514 513.464 605.482 515.032V515.8C605.482 517.496 605.642 518.936 605.962 520.12C606.282 521.272 606.826 522.152 607.594 522.76C608.362 523.368 609.402 523.672 610.714 523.672C611.802 523.672 612.698 523.368 613.402 522.76C614.106 522.152 614.634 521.256 614.986 520.072C615.338 518.888 615.514 517.448 615.514 515.752C615.514 513.192 615.114 511.272 614.314 509.992C613.546 508.68 612.314 508.024 610.618 508.024ZM639.505 502.312C641.937 502.312 644.017 502.776 645.745 503.704C647.505 504.632 648.865 505.976 649.825 507.736C650.785 509.496 651.265 511.656 651.265 514.216V517.672H634.369C634.433 519.688 635.025 521.272 636.145 522.424C637.297 523.576 638.881 524.152 640.897 524.152C642.593 524.152 644.129 523.992 645.505 523.672C646.881 523.32 648.305 522.792 649.777 522.088V527.608C648.497 528.248 647.137 528.712 645.697 529C644.289 529.32 642.577 529.48 640.561 529.48C637.937 529.48 635.617 529 633.601 528.04C631.585 527.048 630.001 525.56 628.849 523.576C627.697 521.592 627.121 519.096 627.121 516.088C627.121 513.016 627.633 510.472 628.657 508.456C629.713 506.408 631.169 504.872 633.025 503.848C634.881 502.824 637.041 502.312 639.505 502.312ZM639.553 507.4C638.177 507.4 637.025 507.848 636.097 508.744C635.201 509.64 634.673 511.032 634.513 512.92H644.545C644.545 511.864 644.353 510.92 643.969 510.088C643.617 509.256 643.073 508.6 642.337 508.12C641.601 507.64 640.673 507.4 639.553 507.4ZM664.216 502.792V512.872H674.2V502.792H681.352V529H674.2V518.2H664.216V529H657.064V502.792H664.216ZM712.414 502.792V523.768H716.254V538.408H709.822V529H692.206V538.408H685.774V523.768H687.982C689.134 522.008 690.11 520.008 690.91 517.768C691.71 515.496 692.35 513.08 692.83 510.52C693.31 507.96 693.662 505.384 693.886 502.792H712.414ZM699.886 508.168C699.63 510.088 699.31 511.96 698.926 513.784C698.542 515.576 698.062 517.304 697.486 518.968C696.942 520.632 696.27 522.232 695.47 523.768H705.262V508.168H699.886ZM744.529 515.848C744.529 518.024 744.225 519.96 743.617 521.656C743.041 523.352 742.193 524.792 741.073 525.976C739.985 527.128 738.657 528.008 737.089 528.616C735.521 529.192 733.745 529.48 731.761 529.48C729.937 529.48 728.241 529.192 726.673 528.616C725.137 528.008 723.809 527.128 722.689 525.976C721.569 524.792 720.689 523.352 720.049 521.656C719.441 519.96 719.137 518.024 719.137 515.848C719.137 512.936 719.649 510.488 720.673 508.504C721.697 506.488 723.169 504.952 725.089 503.896C727.009 502.84 729.281 502.312 731.905 502.312C734.369 502.312 736.545 502.84 738.433 503.896C740.321 504.952 741.809 506.488 742.897 508.504C743.985 510.488 744.529 512.936 744.529 515.848ZM726.433 515.848C726.433 517.576 726.609 519.032 726.961 520.216C727.345 521.368 727.937 522.248 728.737 522.856C729.537 523.432 730.577 523.72 731.857 523.72C733.137 523.72 734.161 523.432 734.929 522.856C735.729 522.248 736.305 521.368 736.657 520.216C737.041 519.032 737.233 517.576 737.233 515.848C737.233 514.12 737.041 512.68 736.657 511.528C736.305 510.376 735.729 509.512 734.929 508.936C734.129 508.36 733.089 508.072 731.809 508.072C729.921 508.072 728.545 508.728 727.681 510.04C726.849 511.32 726.433 513.256 726.433 515.848ZM773.671 509.656C773.671 511.064 773.223 512.264 772.327 513.256C771.463 514.248 770.167 514.888 768.439 515.176V515.368C770.263 515.592 771.719 516.216 772.807 517.24C773.927 518.264 774.487 519.576 774.487 521.176C774.487 522.296 774.263 523.336 773.815 524.296C773.399 525.256 772.727 526.088 771.799 526.792C770.871 527.496 769.671 528.04 768.199 528.424C766.759 528.808 764.999 529 762.919 529H750.439V502.792H762.919C764.967 502.792 766.791 503.016 768.391 503.464C770.023 503.88 771.303 504.584 772.231 505.576C773.191 506.568 773.671 507.928 773.671 509.656ZM767.095 520.792C767.095 519.768 766.695 519.032 765.895 518.584C765.095 518.104 763.895 517.864 762.295 517.864H757.591V524.056H762.439C763.783 524.056 764.887 523.816 765.751 523.336C766.647 522.824 767.095 521.976 767.095 520.792ZM766.423 510.232C766.423 509.4 766.103 508.792 765.463 508.408C764.823 508.024 763.879 507.832 762.631 507.832H757.591V513.016H761.815C763.319 513.016 764.455 512.808 765.223 512.392C766.023 511.944 766.423 511.224 766.423 510.232Z" fill="black"/>
<rect x="8" y="631" width="844" height="147" rx="73.5" fill="#2A2A30" fill-opacity="0.7"/>
<rect y="610" width="844" height="147" rx="73.5" fill="#746074"/>
<path d="M58.226 661.728C61.266 661.728 63.81 662.016 65.858 662.592C67.938 663.136 69.49 664.048 70.514 665.328C71.57 666.576 72.098 668.272 72.098 670.416C72.098 671.696 71.89 672.864 71.474 673.92C71.058 674.976 70.45 675.84 69.65 676.512C68.882 677.184 67.938 677.616 66.818 677.808V678.048C67.97 678.272 69.01 678.672 69.938 679.248C70.866 679.824 71.602 680.656 72.146 681.744C72.69 682.832 72.962 684.272 72.962 686.064C72.962 688.144 72.45 689.936 71.426 691.44C70.434 692.912 68.994 694.048 67.106 694.848C65.218 695.616 62.978 696 60.386 696H47.57V661.728H58.226ZM59.042 675.312C61.154 675.312 62.61 674.976 63.41 674.304C64.242 673.632 64.658 672.656 64.658 671.376C64.658 670.064 64.178 669.12 63.218 668.544C62.258 667.968 60.738 667.68 58.658 667.68H54.818V675.312H59.042ZM54.818 681.072V690H59.57C61.746 690 63.266 689.584 64.13 688.752C64.994 687.888 65.426 686.752 65.426 685.344C65.426 684.48 65.234 683.728 64.85 683.088C64.498 682.448 63.874 681.952 62.978 681.6C62.082 681.248 60.866 681.072 59.33 681.072H54.818ZM88.796 669.312C90.684 669.312 92.444 669.568 94.076 670.08C95.74 670.56 97.068 671.312 98.06 672.336C99.084 673.36 99.596 674.672 99.596 676.272C99.596 677.84 99.116 679.088 98.156 680.016C97.228 680.944 95.964 681.616 94.364 682.032V682.272C95.484 682.528 96.492 682.896 97.388 683.376C98.284 683.824 98.988 684.448 99.5 685.248C100.044 686.016 100.316 687.056 100.316 688.368C100.316 689.808 99.852 691.152 98.924 692.4C98.028 693.616 96.62 694.608 94.7 695.376C92.812 696.112 90.38 696.48 87.404 696.48C85.996 696.48 84.668 696.416 83.42 696.288C82.172 696.16 81.036 695.984 80.012 695.76C78.988 695.504 78.092 695.2 77.324 694.848V688.944C78.412 689.456 79.74 689.92 81.308 690.336C82.908 690.752 84.604 690.96 86.396 690.96C87.708 690.96 88.876 690.864 89.9 690.672C90.956 690.48 91.788 690.16 92.396 689.712C93.036 689.264 93.356 688.672 93.356 687.936C93.356 687.232 93.084 686.656 92.54 686.208C91.996 685.728 91.18 685.376 90.092 685.152C89.004 684.928 87.612 684.816 85.916 684.816H83.132V679.872H85.772C88.14 679.872 89.964 679.68 91.244 679.296C92.556 678.912 93.212 678.192 93.212 677.136C93.212 676.304 92.796 675.68 91.964 675.264C91.132 674.816 89.772 674.592 87.884 674.592C86.636 674.592 85.276 674.736 83.804 675.024C82.332 675.312 80.94 675.728 79.628 676.272L77.516 671.28C79.02 670.704 80.668 670.24 82.46 669.888C84.252 669.504 86.364 669.312 88.796 669.312ZM116.621 669.264C120.141 669.264 122.829 670.032 124.685 671.568C126.573 673.072 127.517 675.392 127.517 678.528V696H122.525L121.133 692.448H120.941C120.205 693.376 119.437 694.144 118.637 694.752C117.869 695.36 116.973 695.792 115.949 696.048C114.957 696.336 113.725 696.48 112.253 696.48C110.717 696.48 109.325 696.192 108.077 695.616C106.861 695.008 105.901 694.096 105.197 692.88C104.493 691.632 104.141 690.064 104.141 688.176C104.141 685.392 105.117 683.344 107.069 682.032C109.021 680.688 111.949 679.952 115.853 679.824L120.413 679.68V678.528C120.413 677.152 120.045 676.144 119.309 675.504C118.605 674.864 117.613 674.544 116.333 674.544C115.053 674.544 113.805 674.736 112.589 675.12C111.373 675.472 110.157 675.92 108.941 676.464L106.589 671.616C107.997 670.88 109.549 670.304 111.245 669.888C112.973 669.472 114.765 669.264 116.621 669.264ZM117.629 683.952C115.325 684.016 113.725 684.432 112.829 685.2C111.933 685.968 111.485 686.976 111.485 688.224C111.485 689.312 111.805 690.096 112.445 690.576C113.085 691.024 113.917 691.248 114.941 691.248C116.477 691.248 117.773 690.8 118.829 689.904C119.885 688.976 120.413 687.68 120.413 686.016V683.856L117.629 683.952ZM141.75 680.16C141.75 680.704 141.718 681.376 141.654 682.176C141.622 682.976 141.574 683.792 141.51 684.624C141.478 685.456 141.43 686.192 141.366 686.832C141.302 687.472 141.254 687.92 141.222 688.176L153.318 669.792H161.91V696H154.998V685.536C154.998 684.672 155.03 683.728 155.094 682.704C155.158 681.648 155.222 680.672 155.286 679.776C155.382 678.848 155.446 678.144 155.478 677.664L143.43 696H134.838V669.792H141.75V680.16ZM202.409 669.792V696H195.737V683.136C195.737 681.856 195.753 680.608 195.785 679.392C195.849 678.176 195.929 677.056 196.025 676.032H195.881L188.633 696H183.257L175.913 675.984H175.721C175.849 677.04 175.929 678.176 175.961 679.392C176.025 680.576 176.057 681.888 176.057 683.328V696H169.385V669.792H179.513L186.041 687.552L192.665 669.792H202.409ZM233.693 682.848C233.693 685.024 233.389 686.96 232.781 688.656C232.205 690.352 231.357 691.792 230.237 692.976C229.149 694.128 227.821 695.008 226.253 695.616C224.685 696.192 222.909 696.48 220.925 696.48C219.101 696.48 217.405 696.192 215.837 695.616C214.301 695.008 212.973 694.128 211.853 692.976C210.733 691.792 209.853 690.352 209.213 688.656C208.605 686.96 208.301 685.024 208.301 682.848C208.301 679.936 208.813 677.488 209.837 675.504C210.861 673.488 212.333 671.952 214.253 670.896C216.173 669.84 218.445 669.312 221.069 669.312C223.533 669.312 225.709 669.84 227.597 670.896C229.485 671.952 230.973 673.488 232.061 675.504C233.149 677.488 233.693 679.936 233.693 682.848ZM215.597 682.848C215.597 684.576 215.773 686.032 216.125 687.216C216.509 688.368 217.101 689.248 217.901 689.856C218.701 690.432 219.741 690.72 221.021 690.72C222.301 690.72 223.325 690.432 224.093 689.856C224.893 689.248 225.469 688.368 225.821 687.216C226.205 686.032 226.397 684.576 226.397 682.848C226.397 681.12 226.205 679.68 225.821 678.528C225.469 677.376 224.893 676.512 224.093 675.936C223.293 675.36 222.253 675.072 220.973 675.072C219.085 675.072 217.709 675.728 216.845 677.04C216.013 678.32 215.597 680.256 215.597 682.848ZM263.171 669.792V690.768H267.011V705.408H260.579V696H242.963V705.408H236.531V690.768H238.739C239.891 689.008 240.867 687.008 241.667 684.768C242.467 682.496 243.107 680.08 243.587 677.52C244.067 674.96 244.419 672.384 244.643 669.792H263.171ZM250.643 675.168C250.387 677.088 250.067 678.96 249.683 680.784C249.299 682.576 248.819 684.304 248.243 685.968C247.699 687.632 247.027 689.232 246.227 690.768H256.019V675.168H250.643ZM282.278 669.312C284.71 669.312 286.79 669.776 288.518 670.704C290.278 671.632 291.638 672.976 292.598 674.736C293.558 676.496 294.038 678.656 294.038 681.216V684.672H277.142C277.206 686.688 277.798 688.272 278.918 689.424C280.07 690.576 281.654 691.152 283.67 691.152C285.366 691.152 286.902 690.992 288.278 690.672C289.654 690.32 291.078 689.792 292.55 689.088V694.608C291.27 695.248 289.91 695.712 288.47 696C287.062 696.32 285.35 696.48 283.334 696.48C280.71 696.48 278.39 696 276.374 695.04C274.358 694.048 272.774 692.56 271.622 690.576C270.47 688.592 269.894 686.096 269.894 683.088C269.894 680.016 270.406 677.472 271.43 675.456C272.486 673.408 273.942 671.872 275.798 670.848C277.654 669.824 279.814 669.312 282.278 669.312ZM282.326 674.4C280.95 674.4 279.798 674.848 278.87 675.744C277.974 676.64 277.446 678.032 277.286 679.92H287.318C287.318 678.864 287.126 677.92 286.742 677.088C286.39 676.256 285.846 675.6 285.11 675.12C284.374 674.64 283.446 674.4 282.326 674.4ZM324.942 658.512C324.782 660.176 324.318 661.648 323.55 662.928C322.782 664.176 321.582 665.152 319.95 665.856C318.318 666.56 316.126 666.912 313.374 666.912C310.558 666.912 308.35 666.576 306.75 665.904C305.182 665.2 304.062 664.224 303.39 662.976C302.718 661.728 302.318 660.24 302.19 658.512H308.574C308.734 660.272 309.182 661.44 309.918 662.016C310.654 662.592 311.854 662.88 313.518 662.88C314.894 662.88 316.014 662.576 316.878 661.968C317.774 661.328 318.302 660.176 318.462 658.512H324.942ZM306.75 680.16C306.75 680.704 306.718 681.376 306.654 682.176C306.622 682.976 306.574 683.792 306.51 684.624C306.478 685.456 306.43 686.192 306.366 686.832C306.302 687.472 306.254 687.92 306.222 688.176L318.318 669.792H326.91V696H319.998V685.536C319.998 684.672 320.03 683.728 320.094 682.704C320.158 681.648 320.222 680.672 320.286 679.776C320.382 678.848 320.446 678.144 320.478 677.664L308.43 696H299.838V669.792H306.75V680.16ZM345.041 696.48C342.449 696.48 340.241 696.016 338.417 695.088C336.593 694.128 335.201 692.656 334.241 690.672C333.281 688.688 332.801 686.144 332.801 683.04C332.801 679.84 333.345 677.232 334.433 675.216C335.521 673.2 337.025 671.712 338.945 670.752C340.897 669.792 343.137 669.312 345.665 669.312C347.457 669.312 349.009 669.488 350.321 669.84C351.665 670.192 352.833 670.608 353.825 671.088L351.713 676.608C350.593 676.16 349.537 675.792 348.545 675.504C347.585 675.216 346.625 675.072 345.665 675.072C344.417 675.072 343.377 675.376 342.545 675.984C341.713 676.56 341.089 677.44 340.673 678.624C340.289 679.776 340.097 681.232 340.097 682.992C340.097 684.72 340.305 686.16 340.721 687.312C341.169 688.432 341.809 689.28 342.641 689.856C343.473 690.4 344.481 690.672 345.665 690.672C347.169 690.672 348.497 690.48 349.649 690.096C350.801 689.68 351.921 689.12 353.009 688.416V694.512C351.921 695.216 350.769 695.712 349.553 696C348.369 696.32 346.865 696.48 345.041 696.48ZM380.737 675.168H372.145V696H364.993V675.168H356.401V669.792H380.737V675.168ZM408.804 676.656C408.804 678.064 408.356 679.264 407.46 680.256C406.596 681.248 405.3 681.888 403.572 682.176V682.368C405.396 682.592 406.852 683.216 407.94 684.24C409.06 685.264 409.62 686.576 409.62 688.176C409.62 689.296 409.396 690.336 408.948 691.296C408.532 692.256 407.86 693.088 406.932 693.792C406.004 694.496 404.804 695.04 403.332 695.424C401.892 695.808 400.132 696 398.052 696H385.572V669.792H398.052C400.1 669.792 401.924 670.016 403.524 670.464C405.156 670.88 406.436 671.584 407.364 672.576C408.324 673.568 408.804 674.928 408.804 676.656ZM402.228 687.792C402.228 686.768 401.828 686.032 401.028 685.584C400.228 685.104 399.028 684.864 397.428 684.864H392.724V691.056H397.572C398.916 691.056 400.02 690.816 400.884 690.336C401.78 689.824 402.228 688.976 402.228 687.792ZM401.556 677.232C401.556 676.4 401.236 675.792 400.596 675.408C399.956 675.024 399.012 674.832 397.764 674.832H392.724V680.016H396.948C398.452 680.016 399.588 679.808 400.356 679.392C401.156 678.944 401.556 678.224 401.556 677.232ZM422.672 680.16C422.672 680.704 422.64 681.376 422.576 682.176C422.544 682.976 422.496 683.792 422.432 684.624C422.4 685.456 422.352 686.192 422.288 686.832C422.224 687.472 422.176 687.92 422.144 688.176L434.24 669.792H442.832V696H435.92V685.536C435.92 684.672 435.952 683.728 436.016 682.704C436.08 681.648 436.144 680.672 436.208 679.776C436.304 678.848 436.368 678.144 436.4 677.664L424.352 696H415.76V669.792H422.672V680.16ZM461.107 669.312C463.539 669.312 465.619 669.776 467.347 670.704C469.107 671.632 470.467 672.976 471.427 674.736C472.387 676.496 472.867 678.656 472.867 681.216V684.672H455.971C456.035 686.688 456.627 688.272 457.747 689.424C458.899 690.576 460.483 691.152 462.499 691.152C464.195 691.152 465.731 690.992 467.107 690.672C468.483 690.32 469.907 689.792 471.379 689.088V694.608C470.099 695.248 468.739 695.712 467.299 696C465.891 696.32 464.179 696.48 462.163 696.48C459.539 696.48 457.219 696 455.203 695.04C453.187 694.048 451.603 692.56 450.451 690.576C449.299 688.592 448.723 686.096 448.723 683.088C448.723 680.016 449.235 677.472 450.259 675.456C451.315 673.408 452.771 671.872 454.627 670.848C456.483 669.824 458.643 669.312 461.107 669.312ZM461.155 674.4C459.779 674.4 458.627 674.848 457.699 675.744C456.803 676.64 456.275 678.032 456.115 679.92H466.147C466.147 678.864 465.955 677.92 465.571 677.088C465.219 676.256 464.675 675.6 463.939 675.12C463.203 674.64 462.275 674.4 461.155 674.4ZM504.991 669.792H512.863L502.495 682.368L513.775 696H505.663L494.959 682.704V696H487.807V669.792H494.959V682.512L504.991 669.792ZM540.396 682.848C540.396 685.024 540.092 686.96 539.484 688.656C538.908 690.352 538.06 691.792 536.94 692.976C535.852 694.128 534.524 695.008 532.956 695.616C531.388 696.192 529.612 696.48 527.628 696.48C525.804 696.48 524.108 696.192 522.54 695.616C521.004 695.008 519.676 694.128 518.556 692.976C517.436 691.792 516.556 690.352 515.916 688.656C515.308 686.96 515.004 685.024 515.004 682.848C515.004 679.936 515.516 677.488 516.54 675.504C517.564 673.488 519.036 671.952 520.956 670.896C522.876 669.84 525.148 669.312 527.772 669.312C530.236 669.312 532.412 669.84 534.3 670.896C536.188 671.952 537.676 673.488 538.764 675.504C539.852 677.488 540.396 679.936 540.396 682.848ZM522.3 682.848C522.3 684.576 522.476 686.032 522.828 687.216C523.212 688.368 523.804 689.248 524.604 689.856C525.404 690.432 526.444 690.72 527.724 690.72C529.004 690.72 530.028 690.432 530.796 689.856C531.596 689.248 532.172 688.368 532.524 687.216C532.908 686.032 533.1 684.576 533.1 682.848C533.1 681.12 532.908 679.68 532.524 678.528C532.172 677.376 531.596 676.512 530.796 675.936C529.996 675.36 528.956 675.072 527.676 675.072C525.788 675.072 524.412 675.728 523.548 677.04C522.716 678.32 522.3 680.256 522.3 682.848ZM569.779 696H562.627V675.168H556.051C555.731 679.008 555.331 682.288 554.851 685.008C554.403 687.696 553.827 689.888 553.123 691.584C552.451 693.28 551.587 694.528 550.531 695.328C549.475 696.096 548.179 696.48 546.643 696.48C545.811 696.48 545.059 696.416 544.387 696.288C543.715 696.16 543.107 695.968 542.562 695.712V690C542.915 690.128 543.283 690.24 543.667 690.336C544.051 690.432 544.451 690.48 544.867 690.48C545.315 690.48 545.731 690.304 546.115 689.952C546.531 689.6 546.915 688.976 547.267 688.08C547.651 687.184 548.003 685.952 548.323 684.384C548.643 682.816 548.931 680.848 549.187 678.48C549.475 676.08 549.731 673.184 549.955 669.792H569.779V696ZM600.716 696H593.564V675.168H586.988C586.668 679.008 586.268 682.288 585.788 685.008C585.34 687.696 584.764 689.888 584.06 691.584C583.388 693.28 582.524 694.528 581.468 695.328C580.412 696.096 579.116 696.48 577.58 696.48C576.748 696.48 575.996 696.416 575.324 696.288C574.652 696.16 574.044 695.968 573.5 695.712V690C573.852 690.128 574.22 690.24 574.604 690.336C574.988 690.432 575.388 690.48 575.804 690.48C576.252 690.48 576.668 690.304 577.052 689.952C577.468 689.6 577.852 688.976 578.204 688.08C578.588 687.184 578.94 685.952 579.26 684.384C579.58 682.816 579.868 680.848 580.124 678.48C580.412 676.08 580.668 673.184 580.892 669.792H600.716V696ZM618.982 669.312C621.414 669.312 623.494 669.776 625.222 670.704C626.982 671.632 628.342 672.976 629.302 674.736C630.262 676.496 630.742 678.656 630.742 681.216V684.672H613.846C613.91 686.688 614.502 688.272 615.622 689.424C616.774 690.576 618.358 691.152 620.374 691.152C622.07 691.152 623.606 690.992 624.982 690.672C626.358 690.32 627.782 689.792 629.254 689.088V694.608C627.974 695.248 626.614 695.712 625.174 696C623.766 696.32 622.054 696.48 620.038 696.48C617.414 696.48 615.094 696 613.078 695.04C611.062 694.048 609.478 692.56 608.326 690.576C607.174 688.592 606.598 686.096 606.598 683.088C606.598 680.016 607.11 677.472 608.134 675.456C609.19 673.408 610.646 671.872 612.502 670.848C614.358 669.824 616.518 669.312 618.982 669.312ZM619.03 674.4C617.654 674.4 616.502 674.848 615.574 675.744C614.678 676.64 614.15 678.032 613.99 679.92H624.022C624.022 678.864 623.83 677.92 623.446 677.088C623.094 676.256 622.55 675.6 621.814 675.12C621.078 674.64 620.15 674.4 619.03 674.4ZM653.725 669.792H661.597L651.229 682.368L662.509 696H654.397L643.693 682.704V696H636.541V669.792H643.693V682.512L653.725 669.792ZM687.956 675.168H679.364V696H672.212V675.168H663.62V669.792H687.956V675.168ZM699.703 680.16C699.703 680.704 699.671 681.376 699.607 682.176C699.575 682.976 699.527 683.792 699.463 684.624C699.431 685.456 699.383 686.192 699.319 686.832C699.255 687.472 699.207 687.92 699.175 688.176L711.271 669.792H719.863V696H712.951V685.536C712.951 684.672 712.983 683.728 713.047 682.704C713.111 681.648 713.175 680.672 713.239 679.776C713.335 678.848 713.399 678.144 713.431 677.664L701.383 696H692.791V669.792H699.703V680.16ZM750.57 676.656C750.57 678.064 750.122 679.264 749.226 680.256C748.362 681.248 747.066 681.888 745.338 682.176V682.368C747.162 682.592 748.618 683.216 749.706 684.24C750.826 685.264 751.386 686.576 751.386 688.176C751.386 689.296 751.162 690.336 750.714 691.296C750.298 692.256 749.626 693.088 748.698 693.792C747.77 694.496 746.57 695.04 745.098 695.424C743.658 695.808 741.898 696 739.818 696H727.338V669.792H739.818C741.866 669.792 743.69 670.016 745.29 670.464C746.922 670.88 748.202 671.584 749.13 672.576C750.09 673.568 750.57 674.928 750.57 676.656ZM743.994 687.792C743.994 686.768 743.594 686.032 742.794 685.584C741.994 685.104 740.794 684.864 739.194 684.864H734.49V691.056H739.338C740.682 691.056 741.786 690.816 742.65 690.336C743.546 689.824 743.994 688.976 743.994 687.792ZM743.322 677.232C743.322 676.4 743.002 675.792 742.362 675.408C741.722 675.024 740.778 674.832 739.53 674.832H734.49V680.016H738.714C740.218 680.016 741.354 679.808 742.122 679.392C742.922 678.944 743.322 678.224 743.322 677.232ZM768.277 669.264C771.797 669.264 774.485 670.032 776.341 671.568C778.229 673.072 779.173 675.392 779.173 678.528V696H774.181L772.789 692.448H772.597C771.861 693.376 771.093 694.144 770.293 694.752C769.525 695.36 768.629 695.792 767.605 696.048C766.613 696.336 765.381 696.48 763.909 696.48C762.373 696.48 760.981 696.192 759.733 695.616C758.517 695.008 757.557 694.096 756.853 692.88C756.149 691.632 755.797 690.064 755.797 688.176C755.797 685.392 756.773 683.344 758.725 682.032C760.677 680.688 763.605 679.952 767.509 679.824L772.069 679.68V678.528C772.069 677.152 771.701 676.144 770.965 675.504C770.261 674.864 769.269 674.544 767.989 674.544C766.709 674.544 765.461 674.736 764.245 675.12C763.029 675.472 761.813 675.92 760.597 676.464L758.245 671.616C759.653 670.88 761.205 670.304 762.901 669.888C764.629 669.472 766.421 669.264 768.277 669.264ZM769.285 683.952C766.981 684.016 765.381 684.432 764.485 685.2C763.589 685.968 763.141 686.976 763.141 688.224C763.141 689.312 763.461 690.096 764.101 690.576C764.741 691.024 765.573 691.248 766.597 691.248C768.133 691.248 769.429 690.8 770.485 689.904C771.541 688.976 772.069 687.68 772.069 686.016V683.856L769.285 683.952Z" fill="black"/>
<rect x="14" y="832" width="844" height="147" rx="73.5" fill="#2A2A30" fill-opacity="0.7"/>
<rect y="807" width="844" height="147" rx="73.5" fill="#5C6C8C"/>
<path d="M200.489 881.968C199.529 884.144 198.505 886.032 197.417 887.632C196.361 889.2 195.001 890.4 193.337 891.232C191.673 892.064 189.497 892.48 186.809 892.48C185.977 892.48 185.065 892.416 184.073 892.288C183.081 892.16 182.169 891.984 181.337 891.76V885.52C182.105 885.84 182.953 886.064 183.881 886.192C184.809 886.32 185.673 886.384 186.473 886.384C187.529 886.384 188.377 886.208 189.017 885.856C189.689 885.504 190.217 885.024 190.601 884.416C191.017 883.776 191.353 883.088 191.609 882.352L179.753 857.728H187.433L193.817 872.56C193.977 872.88 194.169 873.296 194.393 873.808C194.617 874.32 194.841 874.848 195.065 875.392C195.289 875.936 195.465 876.416 195.593 876.832H195.833C195.961 876.448 196.121 875.984 196.313 875.44C196.537 874.864 196.761 874.288 196.985 873.712C197.241 873.104 197.465 872.576 197.657 872.128L203.609 857.728H211.097L200.489 881.968ZM235.554 865.792V886.768H239.394V901.408H232.962V892H215.346V901.408H208.914V886.768H211.122C212.274 885.008 213.25 883.008 214.05 880.768C214.85 878.496 215.49 876.08 215.97 873.52C216.45 870.96 216.802 868.384 217.026 865.792H235.554ZM223.026 871.168C222.77 873.088 222.45 874.96 222.066 876.784C221.682 878.576 221.202 880.304 220.626 881.968C220.082 883.632 219.41 885.232 218.61 886.768H228.402V871.168H223.026ZM267.669 878.848C267.669 881.024 267.365 882.96 266.757 884.656C266.181 886.352 265.333 887.792 264.213 888.976C263.125 890.128 261.797 891.008 260.229 891.616C258.661 892.192 256.885 892.48 254.901 892.48C253.077 892.48 251.381 892.192 249.813 891.616C248.277 891.008 246.949 890.128 245.829 888.976C244.709 887.792 243.829 886.352 243.189 884.656C242.581 882.96 242.277 881.024 242.277 878.848C242.277 875.936 242.789 873.488 243.813 871.504C244.837 869.488 246.309 867.952 248.229 866.896C250.149 865.84 252.421 865.312 255.045 865.312C257.509 865.312 259.685 865.84 261.573 866.896C263.461 867.952 264.949 869.488 266.037 871.504C267.125 873.488 267.669 875.936 267.669 878.848ZM249.573 878.848C249.573 880.576 249.749 882.032 250.101 883.216C250.485 884.368 251.077 885.248 251.877 885.856C252.677 886.432 253.717 886.72 254.997 886.72C256.277 886.72 257.301 886.432 258.069 885.856C258.869 885.248 259.445 884.368 259.797 883.216C260.181 882.032 260.373 880.576 260.373 878.848C260.373 877.12 260.181 875.68 259.797 874.528C259.445 873.376 258.869 872.512 258.069 871.936C257.269 871.36 256.229 871.072 254.949 871.072C253.061 871.072 251.685 871.728 250.821 873.04C249.989 874.32 249.573 876.256 249.573 878.848ZM271.996 876.304C271.996 872.432 272.476 869.152 273.436 866.464C274.396 863.744 275.916 861.584 277.996 859.984C280.076 858.352 282.796 857.248 286.156 856.672C287.852 856.384 289.564 856.144 291.292 855.952C293.052 855.728 294.86 855.504 296.716 855.28L297.532 861.52C296.732 861.616 295.852 861.728 294.892 861.856C293.932 861.952 292.956 862.064 291.964 862.192C291.004 862.288 290.076 862.4 289.18 862.528C288.284 862.656 287.468 862.768 286.732 862.864C285.548 863.056 284.508 863.328 283.612 863.68C282.716 864 281.964 864.464 281.356 865.072C280.748 865.68 280.268 866.512 279.916 867.568C279.596 868.592 279.388 869.92 279.292 871.552H279.628C280.012 870.944 280.54 870.336 281.212 869.728C281.916 869.12 282.78 868.608 283.804 868.192C284.828 867.776 285.996 867.568 287.308 867.568C289.388 867.568 291.196 868 292.732 868.864C294.268 869.728 295.452 871.008 296.284 872.704C297.116 874.4 297.532 876.512 297.532 879.04C297.532 882.016 296.988 884.496 295.9 886.48C294.812 888.464 293.308 889.968 291.388 890.992C289.468 891.984 287.244 892.48 284.716 892.48C282.796 892.48 281.052 892.128 279.484 891.424C277.916 890.72 276.572 889.68 275.452 888.304C274.332 886.928 273.468 885.232 272.86 883.216C272.284 881.2 271.996 878.896 271.996 876.304ZM285.148 886.672C286.172 886.672 287.052 886.448 287.788 886C288.556 885.552 289.148 884.816 289.564 883.792C290.012 882.768 290.236 881.392 290.236 879.664C290.236 877.584 289.884 875.936 289.18 874.72C288.508 873.472 287.324 872.848 285.628 872.848C284.604 872.848 283.644 873.104 282.748 873.616C281.884 874.096 281.148 874.656 280.54 875.296C279.932 875.904 279.516 876.432 279.292 876.88C279.292 878.128 279.388 879.344 279.58 880.528C279.772 881.68 280.092 882.72 280.54 883.648C280.988 884.576 281.58 885.312 282.316 885.856C283.084 886.4 284.028 886.672 285.148 886.672ZM310.591 865.792V875.872H320.575V865.792H327.727V892H320.575V881.2H310.591V892H303.439V865.792H310.591ZM335.221 892V865.792H342.373V875.92H345.829C348.517 875.92 350.725 876.208 352.453 876.784C354.181 877.328 355.461 878.176 356.293 879.328C357.157 880.48 357.589 881.92 357.589 883.648C357.589 885.344 357.189 886.816 356.389 888.064C355.621 889.312 354.389 890.288 352.693 890.992C351.029 891.664 348.821 892 346.069 892H335.221ZM345.685 887.056C347.093 887.056 348.229 886.8 349.093 886.288C349.989 885.776 350.437 884.928 350.437 883.744C350.437 882.72 350.021 881.984 349.189 881.536C348.389 881.088 347.189 880.864 345.589 880.864H342.373V887.056H345.685ZM361.381 892V865.792H368.533V892H361.381ZM401.106 854.512C400.946 856.176 400.482 857.648 399.714 858.928C398.946 860.176 397.746 861.152 396.114 861.856C394.482 862.56 392.29 862.912 389.538 862.912C386.722 862.912 384.514 862.576 382.914 861.904C381.346 861.2 380.226 860.224 379.554 858.976C378.882 857.728 378.482 856.24 378.354 854.512H384.738C384.898 856.272 385.346 857.44 386.082 858.016C386.818 858.592 388.018 858.88 389.682 858.88C391.058 858.88 392.178 858.576 393.042 857.968C393.938 857.328 394.466 856.176 394.626 854.512H401.106ZM382.914 876.16C382.914 876.704 382.882 877.376 382.818 878.176C382.786 878.976 382.738 879.792 382.674 880.624C382.642 881.456 382.594 882.192 382.53 882.832C382.466 883.472 382.418 883.92 382.386 884.176L394.482 865.792H403.074V892H396.162V881.536C396.162 880.672 396.194 879.728 396.258 878.704C396.322 877.648 396.386 876.672 396.45 875.776C396.546 874.848 396.61 874.144 396.642 873.664L384.594 892H376.002V865.792H382.914V876.16ZM426.601 876.16C426.601 876.704 426.569 877.376 426.505 878.176C426.473 878.976 426.425 879.792 426.361 880.624C426.329 881.456 426.281 882.192 426.217 882.832C426.153 883.472 426.105 883.92 426.073 884.176L438.169 865.792H446.761V892H439.849V881.536C439.849 880.672 439.881 879.728 439.945 878.704C440.009 877.648 440.073 876.672 440.137 875.776C440.233 874.848 440.297 874.144 440.329 873.664L428.281 892H419.689V865.792H426.601V876.16ZM461.388 865.792V875.872H471.372V865.792H478.524V892H471.372V881.2H461.388V892H454.236V865.792H461.388ZM507.713 871.168H499.121V892H491.969V871.168H483.377V865.792H507.713V871.168ZM522.88 865.312C525.312 865.312 527.392 865.776 529.12 866.704C530.88 867.632 532.24 868.976 533.2 870.736C534.16 872.496 534.64 874.656 534.64 877.216V880.672H517.744C517.808 882.688 518.4 884.272 519.52 885.424C520.672 886.576 522.256 887.152 524.272 887.152C525.968 887.152 527.504 886.992 528.88 886.672C530.256 886.32 531.68 885.792 533.152 885.088V890.608C531.872 891.248 530.512 891.712 529.072 892C527.664 892.32 525.952 892.48 523.936 892.48C521.312 892.48 518.992 892 516.976 891.04C514.96 890.048 513.376 888.56 512.224 886.576C511.072 884.592 510.496 882.096 510.496 879.088C510.496 876.016 511.008 873.472 512.032 871.456C513.088 869.408 514.544 867.872 516.4 866.848C518.256 865.824 520.416 865.312 522.88 865.312ZM522.928 870.4C521.552 870.4 520.4 870.848 519.472 871.744C518.576 872.64 518.048 874.032 517.888 875.92H527.92C527.92 874.864 527.728 873.92 527.344 873.088C526.992 872.256 526.448 871.6 525.712 871.12C524.976 870.64 524.048 870.4 522.928 870.4ZM555.031 865.312C557.975 865.312 560.359 866.464 562.183 868.768C564.007 871.04 564.919 874.4 564.919 878.848C564.919 881.824 564.487 884.336 563.623 886.384C562.759 888.4 561.575 889.92 560.071 890.944C558.567 891.968 556.823 892.48 554.839 892.48C553.591 892.48 552.503 892.32 551.575 892C550.679 891.68 549.911 891.264 549.271 890.752C548.631 890.24 548.071 889.696 547.591 889.12H547.207C547.335 889.728 547.431 890.368 547.495 891.04C547.559 891.68 547.591 892.32 547.591 892.96V903.52H540.439V865.792H546.247L547.255 869.2H547.591C548.071 868.496 548.647 867.856 549.319 867.28C549.991 866.672 550.791 866.192 551.719 865.84C552.679 865.488 553.783 865.312 555.031 865.312ZM552.727 871.024C551.479 871.024 550.487 871.28 549.751 871.792C549.015 872.304 548.471 873.088 548.119 874.144C547.799 875.168 547.623 876.464 547.591 878.032V878.8C547.591 880.496 547.751 881.936 548.071 883.12C548.391 884.272 548.935 885.152 549.703 885.76C550.471 886.368 551.511 886.672 552.823 886.672C553.911 886.672 554.807 886.368 555.511 885.76C556.215 885.152 556.743 884.256 557.095 883.072C557.447 881.888 557.623 880.448 557.623 878.752C557.623 876.192 557.223 874.272 556.423 872.992C555.655 871.68 554.423 871.024 552.727 871.024ZM589.966 865.648C593.006 865.904 595.566 866.624 597.646 867.808C599.726 868.96 601.294 870.48 602.35 872.368C603.438 874.256 603.982 876.432 603.982 878.896C603.982 881.328 603.454 883.504 602.398 885.424C601.374 887.344 599.822 888.896 597.742 890.08C595.694 891.232 593.102 891.936 589.966 892.192V903.52H583.342V892.192C580.334 891.904 577.774 891.184 575.662 890.032C573.582 888.848 571.982 887.312 570.862 885.424C569.774 883.504 569.23 881.328 569.23 878.896C569.23 876.4 569.726 874.192 570.718 872.272C571.742 870.352 573.294 868.816 575.374 867.664C577.486 866.512 580.142 865.84 583.342 865.648V855.52H589.966V865.648ZM583.342 871.024C581.966 871.216 580.766 871.68 579.742 872.416C578.718 873.12 577.934 874.032 577.39 875.152C576.846 876.24 576.574 877.488 576.574 878.896C576.574 880.304 576.83 881.568 577.342 882.688C577.886 883.808 578.654 884.72 579.646 885.424C580.67 886.128 581.902 886.576 583.342 886.768V871.024ZM589.966 886.768C591.406 886.576 592.622 886.128 593.614 885.424C594.606 884.72 595.358 883.808 595.87 882.688C596.382 881.568 596.638 880.304 596.638 878.896C596.638 877.488 596.366 876.24 595.822 875.152C595.278 874.032 594.51 873.12 593.518 872.416C592.526 871.712 591.342 871.28 589.966 871.12V886.768ZM620.708 865.312C623.14 865.312 625.22 865.776 626.948 866.704C628.708 867.632 630.068 868.976 631.028 870.736C631.988 872.496 632.468 874.656 632.468 877.216V880.672H615.572C615.636 882.688 616.228 884.272 617.348 885.424C618.5 886.576 620.084 887.152 622.1 887.152C623.796 887.152 625.332 886.992 626.708 886.672C628.084 886.32 629.508 885.792 630.98 885.088V890.608C629.7 891.248 628.34 891.712 626.9 892C625.492 892.32 623.78 892.48 621.764 892.48C619.14 892.48 616.82 892 614.804 891.04C612.788 890.048 611.204 888.56 610.052 886.576C608.9 884.592 608.324 882.096 608.324 879.088C608.324 876.016 608.836 873.472 609.86 871.456C610.916 869.408 612.372 867.872 614.228 866.848C616.084 865.824 618.244 865.312 620.708 865.312ZM620.756 870.4C619.38 870.4 618.228 870.848 617.3 871.744C616.404 872.64 615.876 874.032 615.716 875.92H625.748C625.748 874.864 625.556 873.92 625.172 873.088C624.82 872.256 624.276 871.6 623.54 871.12C622.804 870.64 621.876 870.4 620.756 870.4ZM663.371 854.512C663.211 856.176 662.747 857.648 661.979 858.928C661.211 860.176 660.011 861.152 658.379 861.856C656.747 862.56 654.555 862.912 651.803 862.912C648.987 862.912 646.779 862.576 645.179 861.904C643.611 861.2 642.491 860.224 641.819 858.976C641.147 857.728 640.747 856.24 640.619 854.512H647.003C647.163 856.272 647.611 857.44 648.347 858.016C649.083 858.592 650.283 858.88 651.947 858.88C653.323 858.88 654.443 858.576 655.307 857.968C656.203 857.328 656.731 856.176 656.891 854.512H663.371ZM645.179 876.16C645.179 876.704 645.147 877.376 645.083 878.176C645.051 878.976 645.003 879.792 644.939 880.624C644.907 881.456 644.859 882.192 644.795 882.832C644.731 883.472 644.683 883.92 644.651 884.176L656.747 865.792H665.339V892H658.427V881.536C658.427 880.672 658.459 879.728 658.523 878.704C658.587 877.648 658.651 876.672 658.715 875.776C658.811 874.848 658.875 874.144 658.907 873.664L646.859 892H638.267V865.792H645.179V876.16ZM683.47 892.48C680.878 892.48 678.67 892.016 676.846 891.088C675.022 890.128 673.63 888.656 672.67 886.672C671.71 884.688 671.23 882.144 671.23 879.04C671.23 875.84 671.774 873.232 672.862 871.216C673.95 869.2 675.454 867.712 677.374 866.752C679.326 865.792 681.566 865.312 684.094 865.312C685.886 865.312 687.438 865.488 688.75 865.84C690.094 866.192 691.262 866.608 692.254 867.088L690.142 872.608C689.022 872.16 687.966 871.792 686.974 871.504C686.014 871.216 685.054 871.072 684.094 871.072C682.846 871.072 681.806 871.376 680.974 871.984C680.142 872.56 679.518 873.44 679.102 874.624C678.718 875.776 678.526 877.232 678.526 878.992C678.526 880.72 678.734 882.16 679.15 883.312C679.598 884.432 680.238 885.28 681.07 885.856C681.902 886.4 682.91 886.672 684.094 886.672C685.598 886.672 686.926 886.48 688.078 886.096C689.23 885.68 690.35 885.12 691.438 884.416V890.512C690.35 891.216 689.198 891.712 687.982 892C686.798 892.32 685.294 892.48 683.47 892.48Z" fill="black"/>
</svg>
